<mxfile host="Electron" modified="2023-07-25T21:58:01.767Z" agent="Mozilla/5.0 (Windows NT 10.0; Win64; x64) AppleWebKit/537.36 (KHTML, like Gecko) draw.io/21.6.5 Chrome/114.0.5735.243 Electron/25.3.1 Safari/537.36" etag="yG8iu-9cnv5lQIQQqs77" version="21.6.5" type="device" pages="2">
  <diagram id="fciP_W_ALSR1GF9K2H4_" name="BPMN as-is">
    <mxGraphModel dx="6007" dy="4199" grid="1" gridSize="10" guides="1" tooltips="1" connect="1" arrows="1" fold="1" page="1" pageScale="1" pageWidth="827" pageHeight="1169" math="0" shadow="0">
      <root>
        <mxCell id="0" />
        <mxCell id="1" parent="0" />
        <mxCell id="jozeFsrv44Ru9U__jrIt-1" value="&lt;h1&gt;&lt;font style=&quot;font-size: 40px;&quot;&gt;Задание&lt;/font&gt;&lt;/h1&gt;&lt;font style=&quot;font-size: 20px;&quot;&gt;Составьте диаграмму текущего бизнес-процесса AS-IS в формате BPMN на основе представленного описания&lt;br&gt;&lt;/font&gt;&lt;p style=&quot;font-size: 20px;&quot;&gt;&lt;font style=&quot;font-size: 20px;&quot;&gt;Как выполнить задание:&lt;/font&gt;&lt;/p&gt;&lt;p style=&quot;font-size: 20px;&quot;&gt;&lt;font style=&quot;font-size: 20px;&quot;&gt;1. Проанализируйте представленные интервью с пациентом, врачом и администратором.&amp;nbsp;&lt;/font&gt;&lt;/p&gt;&lt;span style=&quot;font-size: 20px;&quot;&gt;2. Начните составление диаграммы с выделения ролей.&lt;/span&gt;&lt;p style=&quot;font-size: 20px;&quot;&gt;3. Просмотрите доступные элементы (задачи, события и шлюзы) для составления диаграммы.&lt;span style=&quot;background-color: initial;&quot;&gt;&amp;nbsp;Расставьте элементы в правильной последовательности и корректно соедините их потоками.&lt;/span&gt;&lt;/p&gt;&lt;p style=&quot;font-size: 20px;&quot;&gt;&lt;font style=&quot;font-size: 20px;&quot;&gt;4. Если вам не хватает информации в задании, то вы можете ее самостоятельно добавить в виде допущения&lt;/font&gt;&lt;/p&gt;&lt;p style=&quot;font-size: 20px;&quot;&gt;&lt;i&gt;Помните, что вы всегда можете оставить дополнительную информацию со своими размышлениями ревьюеру в виде пометок. Просто возьмите одну из карточек ниже.&amp;nbsp;&lt;/i&gt;&lt;/p&gt;&lt;p style=&quot;font-size: 20px;&quot;&gt;&lt;font style=&quot;font-size: 20px;&quot;&gt;5. Когда диаграмма BPMN будет готова, переходите к вкладке №2 для составления диаграммы BPMN to-be.&lt;/font&gt;&lt;/p&gt;" style="text;html=1;strokeColor=#82b366;fillColor=#d5e8d4;spacing=5;spacingTop=-20;whiteSpace=wrap;overflow=hidden;rounded=0;fontSize=16;" parent="1" vertex="1">
          <mxGeometry x="-770" y="-1120" width="710" height="610" as="geometry" />
        </mxCell>
        <mxCell id="IdnZMxnS1Rqda_gSgM-b-1" value="Пациент" style="swimlane;startSize=20;horizontal=0;html=1;whiteSpace=wrap;" parent="1" vertex="1">
          <mxGeometry y="-420" width="3980" height="180" as="geometry" />
        </mxCell>
        <mxCell id="IdnZMxnS1Rqda_gSgM-b-7" value="" style="edgeStyle=orthogonalEdgeStyle;rounded=0;orthogonalLoop=1;jettySize=auto;html=1;fontSize=10;" parent="IdnZMxnS1Rqda_gSgM-b-1" source="z06Lk7gCF3U0c66Gr2mV-23" target="z06Lk7gCF3U0c66Gr2mV-22" edge="1">
          <mxGeometry relative="1" as="geometry" />
        </mxCell>
        <mxCell id="z06Lk7gCF3U0c66Gr2mV-23" value="Наступил день &lt;br style=&quot;font-size: 10px;&quot;&gt;записи на приём" style="points=[[0.145,0.145,0],[0.5,0,0],[0.855,0.145,0],[1,0.5,0],[0.855,0.855,0],[0.5,1,0],[0.145,0.855,0],[0,0.5,0]];shape=mxgraph.bpmn.event;html=1;verticalLabelPosition=bottom;labelBackgroundColor=#ffffff;verticalAlign=top;align=center;perimeter=ellipsePerimeter;outlineConnect=0;aspect=fixed;outline=standard;symbol=general;fontSize=10;" parent="IdnZMxnS1Rqda_gSgM-b-1" vertex="1">
          <mxGeometry x="75" y="65" width="50" height="50" as="geometry" />
        </mxCell>
        <mxCell id="z06Lk7gCF3U0c66Gr2mV-22" value="Прийти на прием" style="points=[[0.25,0,0],[0.5,0,0],[0.75,0,0],[1,0.25,0],[1,0.5,0],[1,0.75,0],[0.75,1,0],[0.5,1,0],[0.25,1,0],[0,0.75,0],[0,0.5,0],[0,0.25,0]];shape=mxgraph.bpmn.task;whiteSpace=wrap;rectStyle=rounded;size=10;taskMarker=abstract;fontSize=11;" parent="IdnZMxnS1Rqda_gSgM-b-1" vertex="1">
          <mxGeometry x="190" y="50" width="120" height="80" as="geometry" />
        </mxCell>
        <mxCell id="vYxDUjJa28USv8poC4iU-31" value="Медикаментозное&amp;nbsp;лечение&lt;br&gt;&amp;nbsp;назначено" style="points=[[0.145,0.145,0],[0.5,0,0],[0.855,0.145,0],[1,0.5,0],[0.855,0.855,0],[0.5,1,0],[0.145,0.855,0],[0,0.5,0]];shape=mxgraph.bpmn.event;html=1;verticalLabelPosition=top;labelBackgroundColor=#ffffff;verticalAlign=bottom;align=center;perimeter=ellipsePerimeter;outlineConnect=0;aspect=fixed;outline=catching;symbol=message;fontSize=11;labelPosition=center;perimeterSpacing=0;" parent="IdnZMxnS1Rqda_gSgM-b-1" vertex="1">
          <mxGeometry x="945" y="65" width="50" height="50" as="geometry" />
        </mxCell>
        <mxCell id="IdnZMxnS1Rqda_gSgM-b-17" value="" style="edgeStyle=elbowEdgeStyle;fontSize=12;html=1;endArrow=blockThin;endFill=1;rounded=0;exitX=1;exitY=0.5;exitDx=0;exitDy=0;exitPerimeter=0;entryX=0;entryY=0.5;entryDx=0;entryDy=0;entryPerimeter=0;" parent="IdnZMxnS1Rqda_gSgM-b-1" source="z06Lk7gCF3U0c66Gr2mV-22" target="vYxDUjJa28USv8poC4iU-31" edge="1">
          <mxGeometry width="160" relative="1" as="geometry">
            <mxPoint x="510" y="110" as="sourcePoint" />
            <mxPoint x="360" y="50" as="targetPoint" />
          </mxGeometry>
        </mxCell>
        <mxCell id="IdnZMxnS1Rqda_gSgM-b-20" value="" style="edgeStyle=orthogonalEdgeStyle;rounded=0;orthogonalLoop=1;jettySize=auto;html=1;fontSize=10;startArrow=none;startFill=0;" parent="IdnZMxnS1Rqda_gSgM-b-1" source="vYxDUjJa28USv8poC4iU-26" target="vYxDUjJa28USv8poC4iU-28" edge="1">
          <mxGeometry relative="1" as="geometry" />
        </mxCell>
        <mxCell id="vYxDUjJa28USv8poC4iU-26" value="Купить медикаменты по назначению" style="points=[[0.25,0,0],[0.5,0,0],[0.75,0,0],[1,0.25,0],[1,0.5,0],[1,0.75,0],[0.75,1,0],[0.5,1,0],[0.25,1,0],[0,0.75,0],[0,0.5,0],[0,0.25,0]];shape=mxgraph.bpmn.task;whiteSpace=wrap;rectStyle=rounded;size=10;html=1;taskMarker=abstract;fontSize=11;" parent="IdnZMxnS1Rqda_gSgM-b-1" vertex="1">
          <mxGeometry x="1050" y="50" width="120" height="80" as="geometry" />
        </mxCell>
        <mxCell id="IdnZMxnS1Rqda_gSgM-b-19" value="" style="edgeStyle=elbowEdgeStyle;fontSize=12;html=1;endArrow=blockThin;endFill=1;rounded=0;" parent="IdnZMxnS1Rqda_gSgM-b-1" source="vYxDUjJa28USv8poC4iU-31" target="vYxDUjJa28USv8poC4iU-26" edge="1">
          <mxGeometry width="160" relative="1" as="geometry">
            <mxPoint x="880" y="140" as="sourcePoint" />
            <mxPoint x="1040" y="140" as="targetPoint" />
          </mxGeometry>
        </mxCell>
        <mxCell id="IdnZMxnS1Rqda_gSgM-b-21" value="" style="edgeStyle=orthogonalEdgeStyle;rounded=0;orthogonalLoop=1;jettySize=auto;html=1;fontSize=10;startArrow=none;startFill=0;" parent="IdnZMxnS1Rqda_gSgM-b-1" source="vYxDUjJa28USv8poC4iU-28" target="vYxDUjJa28USv8poC4iU-27" edge="1">
          <mxGeometry relative="1" as="geometry" />
        </mxCell>
        <mxCell id="vYxDUjJa28USv8poC4iU-28" value="Пройти медикаментозное лечение" style="points=[[0.25,0,0],[0.5,0,0],[0.75,0,0],[1,0.25,0],[1,0.5,0],[1,0.75,0],[0.75,1,0],[0.5,1,0],[0.25,1,0],[0,0.75,0],[0,0.5,0],[0,0.25,0]];shape=mxgraph.bpmn.task;whiteSpace=wrap;rectStyle=rounded;size=10;html=1;taskMarker=abstract;fontSize=11;" parent="IdnZMxnS1Rqda_gSgM-b-1" vertex="1">
          <mxGeometry x="1210" y="50" width="120" height="80" as="geometry" />
        </mxCell>
        <mxCell id="vYxDUjJa28USv8poC4iU-27" value="&lt;font style=&quot;font-size: 11px;&quot;&gt;Медикаментозное &lt;br&gt;лечение&amp;nbsp;&lt;br&gt;пройдено&lt;br&gt;&lt;/font&gt;" style="points=[[0.145,0.145,0],[0.5,0,0],[0.855,0.145,0],[1,0.5,0],[0.855,0.855,0],[0.5,1,0],[0.145,0.855,0],[0,0.5,0]];shape=mxgraph.bpmn.event;html=1;verticalLabelPosition=bottom;labelBackgroundColor=#ffffff;verticalAlign=top;align=center;perimeter=ellipsePerimeter;outlineConnect=0;aspect=fixed;outline=end;symbol=terminate2;" parent="IdnZMxnS1Rqda_gSgM-b-1" vertex="1">
          <mxGeometry x="1380" y="65" width="50" height="50" as="geometry" />
        </mxCell>
        <mxCell id="IdnZMxnS1Rqda_gSgM-b-27" value="" style="edgeStyle=orthogonalEdgeStyle;rounded=0;orthogonalLoop=1;jettySize=auto;html=1;fontSize=10;startArrow=none;startFill=0;" parent="IdnZMxnS1Rqda_gSgM-b-1" source="vYxDUjJa28USv8poC4iU-32" target="vYxDUjJa28USv8poC4iU-29" edge="1">
          <mxGeometry relative="1" as="geometry" />
        </mxCell>
        <mxCell id="vYxDUjJa28USv8poC4iU-32" value="Обследование&amp;nbsp;&lt;br&gt;назначено" style="points=[[0.145,0.145,0],[0.5,0,0],[0.855,0.145,0],[1,0.5,0],[0.855,0.855,0],[0.5,1,0],[0.145,0.855,0],[0,0.5,0]];shape=mxgraph.bpmn.event;html=1;verticalLabelPosition=top;labelBackgroundColor=#ffffff;verticalAlign=bottom;align=center;perimeter=ellipsePerimeter;outlineConnect=0;aspect=fixed;outline=standard;symbol=message;fontSize=11;labelPosition=center;" parent="IdnZMxnS1Rqda_gSgM-b-1" vertex="1">
          <mxGeometry x="1515" y="65" width="50" height="50" as="geometry" />
        </mxCell>
        <mxCell id="IdnZMxnS1Rqda_gSgM-b-28" value="" style="edgeStyle=orthogonalEdgeStyle;rounded=0;orthogonalLoop=1;jettySize=auto;html=1;fontSize=10;startArrow=none;startFill=0;" parent="IdnZMxnS1Rqda_gSgM-b-1" source="vYxDUjJa28USv8poC4iU-29" target="vYxDUjJa28USv8poC4iU-33" edge="1">
          <mxGeometry relative="1" as="geometry" />
        </mxCell>
        <mxCell id="vYxDUjJa28USv8poC4iU-29" value="Узнать расписание процедурного кабинета&amp;nbsp;" style="points=[[0.25,0,0],[0.5,0,0],[0.75,0,0],[1,0.25,0],[1,0.5,0],[1,0.75,0],[0.75,1,0],[0.5,1,0],[0.25,1,0],[0,0.75,0],[0,0.5,0],[0,0.25,0]];shape=mxgraph.bpmn.task;whiteSpace=wrap;rectStyle=rounded;size=10;html=1;taskMarker=abstract;fontSize=11;" parent="IdnZMxnS1Rqda_gSgM-b-1" vertex="1">
          <mxGeometry x="1610" y="50" width="120" height="80" as="geometry" />
        </mxCell>
        <mxCell id="IdnZMxnS1Rqda_gSgM-b-32" value="" style="edgeStyle=orthogonalEdgeStyle;rounded=0;orthogonalLoop=1;jettySize=auto;html=1;fontSize=10;startArrow=none;startFill=0;" parent="IdnZMxnS1Rqda_gSgM-b-1" source="vYxDUjJa28USv8poC4iU-33" target="vYxDUjJa28USv8poC4iU-35" edge="1">
          <mxGeometry relative="1" as="geometry" />
        </mxCell>
        <mxCell id="vYxDUjJa28USv8poC4iU-33" value="Получено расписание&lt;br&gt;&amp;nbsp;процедурного кабинета" style="points=[[0.145,0.145,0],[0.5,0,0],[0.855,0.145,0],[1,0.5,0],[0.855,0.855,0],[0.5,1,0],[0.145,0.855,0],[0,0.5,0]];shape=mxgraph.bpmn.event;html=1;verticalLabelPosition=top;labelBackgroundColor=#ffffff;verticalAlign=bottom;align=center;perimeter=ellipsePerimeter;outlineConnect=0;aspect=fixed;outline=catching;symbol=message;fontSize=11;labelPosition=center;" parent="IdnZMxnS1Rqda_gSgM-b-1" vertex="1">
          <mxGeometry x="1780" y="65" width="50" height="50" as="geometry" />
        </mxCell>
        <mxCell id="IdnZMxnS1Rqda_gSgM-b-33" value="" style="edgeStyle=orthogonalEdgeStyle;rounded=0;orthogonalLoop=1;jettySize=auto;html=1;fontSize=10;startArrow=none;startFill=0;" parent="IdnZMxnS1Rqda_gSgM-b-1" source="vYxDUjJa28USv8poC4iU-35" target="vYxDUjJa28USv8poC4iU-36" edge="1">
          <mxGeometry relative="1" as="geometry" />
        </mxCell>
        <mxCell id="vYxDUjJa28USv8poC4iU-35" value="В нужное время&amp;nbsp;&lt;br&gt;по расписанию" style="points=[[0.145,0.145,0],[0.5,0,0],[0.855,0.145,0],[1,0.5,0],[0.855,0.855,0],[0.5,1,0],[0.145,0.855,0],[0,0.5,0]];shape=mxgraph.bpmn.event;html=1;verticalLabelPosition=bottom;labelBackgroundColor=#ffffff;verticalAlign=top;align=center;perimeter=ellipsePerimeter;outlineConnect=0;aspect=fixed;outline=catching;symbol=timer;fontSize=11;" parent="IdnZMxnS1Rqda_gSgM-b-1" vertex="1">
          <mxGeometry x="1910" y="65" width="50" height="50" as="geometry" />
        </mxCell>
        <mxCell id="IdnZMxnS1Rqda_gSgM-b-36" value="" style="edgeStyle=orthogonalEdgeStyle;rounded=0;orthogonalLoop=1;jettySize=auto;html=1;fontSize=18;startArrow=none;startFill=0;" parent="IdnZMxnS1Rqda_gSgM-b-1" source="vYxDUjJa28USv8poC4iU-36" target="vYxDUjJa28USv8poC4iU-34" edge="1">
          <mxGeometry relative="1" as="geometry" />
        </mxCell>
        <mxCell id="vYxDUjJa28USv8poC4iU-36" value="Сдать анализы в клинике" style="points=[[0.25,0,0],[0.5,0,0],[0.75,0,0],[1,0.25,0],[1,0.5,0],[1,0.75,0],[0.75,1,0],[0.5,1,0],[0.25,1,0],[0,0.75,0],[0,0.5,0],[0,0.25,0]];shape=mxgraph.bpmn.task;whiteSpace=wrap;rectStyle=rounded;size=10;html=1;taskMarker=abstract;isLoopSub=1;fontSize=11;" parent="IdnZMxnS1Rqda_gSgM-b-1" vertex="1">
          <mxGeometry x="2010" y="50" width="120" height="80" as="geometry" />
        </mxCell>
        <mxCell id="IdnZMxnS1Rqda_gSgM-b-37" value="" style="edgeStyle=orthogonalEdgeStyle;rounded=0;orthogonalLoop=1;jettySize=auto;html=1;fontSize=18;startArrow=none;startFill=0;entryX=0;entryY=0.5;entryDx=0;entryDy=0;entryPerimeter=0;" parent="IdnZMxnS1Rqda_gSgM-b-1" source="vYxDUjJa28USv8poC4iU-34" target="z06Lk7gCF3U0c66Gr2mV-16" edge="1">
          <mxGeometry relative="1" as="geometry">
            <mxPoint x="2270" y="50" as="targetPoint" />
          </mxGeometry>
        </mxCell>
        <mxCell id="vYxDUjJa28USv8poC4iU-34" value="Через 2 дня" style="points=[[0.145,0.145,0],[0.5,0,0],[0.855,0.145,0],[1,0.5,0],[0.855,0.855,0],[0.5,1,0],[0.145,0.855,0],[0,0.5,0]];shape=mxgraph.bpmn.event;html=1;verticalLabelPosition=bottom;labelBackgroundColor=#ffffff;verticalAlign=top;align=center;perimeter=ellipsePerimeter;outlineConnect=0;aspect=fixed;outline=catching;symbol=timer;fontSize=11;" parent="IdnZMxnS1Rqda_gSgM-b-1" vertex="1">
          <mxGeometry x="2180" y="65" width="50" height="50" as="geometry" />
        </mxCell>
        <mxCell id="IdnZMxnS1Rqda_gSgM-b-45" value="" style="edgeStyle=orthogonalEdgeStyle;rounded=0;orthogonalLoop=1;jettySize=auto;html=1;fontSize=15;startArrow=none;startFill=0;entryX=0;entryY=0.5;entryDx=0;entryDy=0;entryPerimeter=0;" parent="IdnZMxnS1Rqda_gSgM-b-1" source="vYxDUjJa28USv8poC4iU-30" target="vYxDUjJa28USv8poC4iU-24" edge="1">
          <mxGeometry relative="1" as="geometry">
            <mxPoint x="2570" y="100" as="targetPoint" />
          </mxGeometry>
        </mxCell>
        <mxCell id="vYxDUjJa28USv8poC4iU-30" value="Узнать статус результатов анализов" style="points=[[0.25,0,0],[0.5,0,0],[0.75,0,0],[1,0.25,0],[1,0.5,0],[1,0.75,0],[0.75,1,0],[0.5,1,0],[0.25,1,0],[0,0.75,0],[0,0.5,0],[0,0.25,0]];shape=mxgraph.bpmn.task;whiteSpace=wrap;rectStyle=rounded;size=10;html=1;taskMarker=abstract;fontSize=11;" parent="IdnZMxnS1Rqda_gSgM-b-1" vertex="1">
          <mxGeometry x="2390" y="50" width="120" height="80" as="geometry" />
        </mxCell>
        <mxCell id="IdnZMxnS1Rqda_gSgM-b-39" value="" style="edgeStyle=elbowEdgeStyle;fontSize=12;html=1;endArrow=blockThin;endFill=1;rounded=0;" parent="IdnZMxnS1Rqda_gSgM-b-1" source="z06Lk7gCF3U0c66Gr2mV-16" target="vYxDUjJa28USv8poC4iU-30" edge="1">
          <mxGeometry width="160" relative="1" as="geometry">
            <mxPoint x="2350" y="60" as="sourcePoint" />
            <mxPoint x="2440" y="30" as="targetPoint" />
          </mxGeometry>
        </mxCell>
        <mxCell id="vYxDUjJa28USv8poC4iU-21" value="&lt;span style=&quot;background-color: rgb(248, 249, 250);&quot;&gt;Результаты &lt;br&gt;анализов&amp;nbsp;&lt;/span&gt;не готовы" style="points=[[0.145,0.145,0],[0.5,0,0],[0.855,0.145,0],[1,0.5,0],[0.855,0.855,0],[0.5,1,0],[0.145,0.855,0],[0,0.5,0]];shape=mxgraph.bpmn.event;html=1;verticalLabelPosition=middle;labelBackgroundColor=#ffffff;verticalAlign=middle;align=left;perimeter=ellipsePerimeter;outlineConnect=0;aspect=fixed;outline=catching;symbol=message;fontSize=11;labelPosition=right;" parent="IdnZMxnS1Rqda_gSgM-b-1" vertex="1">
          <mxGeometry x="2865" y="65" width="50" height="50" as="geometry" />
        </mxCell>
        <mxCell id="vYxDUjJa28USv8poC4iU-23" value="&lt;span style=&quot;background-color: rgb(248, 249, 250);&quot;&gt;Результаты анализов&lt;br&gt;&lt;/span&gt;&amp;nbsp;готовы" style="points=[[0.145,0.145,0],[0.5,0,0],[0.855,0.145,0],[1,0.5,0],[0.855,0.855,0],[0.5,1,0],[0.145,0.855,0],[0,0.5,0]];shape=mxgraph.bpmn.event;html=1;verticalLabelPosition=top;labelBackgroundColor=#ffffff;verticalAlign=bottom;align=center;perimeter=ellipsePerimeter;outlineConnect=0;aspect=fixed;outline=catching;symbol=message;fontSize=11;labelPosition=center;" parent="IdnZMxnS1Rqda_gSgM-b-1" vertex="1">
          <mxGeometry x="3070" y="120" width="50" height="50" as="geometry" />
        </mxCell>
        <mxCell id="IdnZMxnS1Rqda_gSgM-b-47" value="" style="edgeStyle=elbowEdgeStyle;fontSize=12;html=1;endArrow=blockThin;endFill=1;rounded=0;entryX=0;entryY=0.5;entryDx=0;entryDy=0;entryPerimeter=0;exitX=1;exitY=0.5;exitDx=0;exitDy=0;exitPerimeter=0;" parent="IdnZMxnS1Rqda_gSgM-b-1" source="vYxDUjJa28USv8poC4iU-24" target="vYxDUjJa28USv8poC4iU-21" edge="1">
          <mxGeometry width="160" relative="1" as="geometry">
            <mxPoint x="2660" y="100" as="sourcePoint" />
            <mxPoint x="2800" y="90" as="targetPoint" />
          </mxGeometry>
        </mxCell>
        <mxCell id="z06Lk7gCF3U0c66Gr2mV-16" value="&lt;font style=&quot;font-size: 11px;&quot;&gt;Крайний срок &lt;br&gt;готовности анализов&lt;br&gt;&amp;nbsp;наступил?&lt;/font&gt;" style="points=[[0.25,0.25,0],[0.5,0,0],[0.75,0.25,0],[1,0.5,0],[0.75,0.75,0],[0.5,1,0],[0.25,0.75,0],[0,0.5,0]];shape=mxgraph.bpmn.gateway2;html=1;verticalLabelPosition=bottom;labelBackgroundColor=#ffffff;verticalAlign=top;align=center;perimeter=rhombusPerimeter;outlineConnect=0;outline=none;symbol=none;gwType=exclusive;" parent="IdnZMxnS1Rqda_gSgM-b-1" vertex="1">
          <mxGeometry x="2290" y="65" width="50" height="50" as="geometry" />
        </mxCell>
        <mxCell id="IdnZMxnS1Rqda_gSgM-b-48" value="" style="edgeStyle=elbowEdgeStyle;fontSize=12;html=1;endArrow=blockThin;endFill=1;rounded=0;entryX=0.5;entryY=0;entryDx=0;entryDy=0;entryPerimeter=0;exitX=0;exitY=0.5;exitDx=0;exitDy=0;exitPerimeter=0;" parent="IdnZMxnS1Rqda_gSgM-b-1" source="vYxDUjJa28USv8poC4iU-22" target="z06Lk7gCF3U0c66Gr2mV-16" edge="1">
          <mxGeometry width="160" relative="1" as="geometry">
            <mxPoint x="2420" y="20" as="sourcePoint" />
            <mxPoint x="2910" y="30" as="targetPoint" />
            <Array as="points">
              <mxPoint x="2315" y="50" />
            </Array>
          </mxGeometry>
        </mxCell>
        <mxCell id="vYxDUjJa28USv8poC4iU-22" value="Через 1 день" style="points=[[0.145,0.145,0],[0.5,0,0],[0.855,0.145,0],[1,0.5,0],[0.855,0.855,0],[0.5,1,0],[0.145,0.855,0],[0,0.5,0]];shape=mxgraph.bpmn.event;html=1;verticalLabelPosition=bottom;labelBackgroundColor=#ffffff;verticalAlign=top;align=center;perimeter=ellipsePerimeter;outlineConnect=0;aspect=fixed;outline=catching;symbol=timer;fontSize=11;" parent="IdnZMxnS1Rqda_gSgM-b-1" vertex="1">
          <mxGeometry x="2710" y="4" width="50" height="50" as="geometry" />
        </mxCell>
        <mxCell id="IdnZMxnS1Rqda_gSgM-b-49" value="" style="edgeStyle=elbowEdgeStyle;fontSize=12;html=1;endArrow=blockThin;endFill=1;rounded=0;entryX=1;entryY=0.5;entryDx=0;entryDy=0;entryPerimeter=0;exitX=0.5;exitY=0;exitDx=0;exitDy=0;exitPerimeter=0;" parent="IdnZMxnS1Rqda_gSgM-b-1" source="vYxDUjJa28USv8poC4iU-21" target="vYxDUjJa28USv8poC4iU-22" edge="1">
          <mxGeometry width="160" relative="1" as="geometry">
            <mxPoint x="2850" y="40" as="sourcePoint" />
            <mxPoint x="3010" y="40" as="targetPoint" />
            <Array as="points">
              <mxPoint x="2890" y="50" />
            </Array>
          </mxGeometry>
        </mxCell>
        <mxCell id="IdnZMxnS1Rqda_gSgM-b-51" value="" style="edgeStyle=elbowEdgeStyle;fontSize=12;html=1;endArrow=blockThin;endFill=1;rounded=0;entryX=0;entryY=0.5;entryDx=0;entryDy=0;entryPerimeter=0;exitX=0.5;exitY=1;exitDx=0;exitDy=0;exitPerimeter=0;" parent="IdnZMxnS1Rqda_gSgM-b-1" source="vYxDUjJa28USv8poC4iU-24" target="vYxDUjJa28USv8poC4iU-23" edge="1">
          <mxGeometry width="160" relative="1" as="geometry">
            <mxPoint x="2600" y="130" as="sourcePoint" />
            <mxPoint x="2830" y="140" as="targetPoint" />
            <Array as="points">
              <mxPoint x="2605" y="130" />
            </Array>
          </mxGeometry>
        </mxCell>
        <mxCell id="vYxDUjJa28USv8poC4iU-24" value="&lt;font style=&quot;font-size: 11px;&quot;&gt;Анализы готовы?&lt;/font&gt;" style="points=[[0.25,0.25,0],[0.5,0,0],[0.75,0.25,0],[1,0.5,0],[0.75,0.75,0],[0.5,1,0],[0.25,0.75,0],[0,0.5,0]];shape=mxgraph.bpmn.gateway2;html=1;verticalLabelPosition=top;labelBackgroundColor=#ffffff;verticalAlign=bottom;align=center;perimeter=rhombusPerimeter;outlineConnect=0;outline=boundInt;symbol=multiple;labelPosition=center;" parent="IdnZMxnS1Rqda_gSgM-b-1" vertex="1">
          <mxGeometry x="2580" y="65" width="50" height="50" as="geometry" />
        </mxCell>
        <mxCell id="IdnZMxnS1Rqda_gSgM-b-57" value="" style="edgeStyle=orthogonalEdgeStyle;rounded=0;orthogonalLoop=1;jettySize=auto;html=1;fontSize=15;startArrow=none;startFill=0;" parent="IdnZMxnS1Rqda_gSgM-b-1" source="vYxDUjJa28USv8poC4iU-25" target="z06Lk7gCF3U0c66Gr2mV-19" edge="1">
          <mxGeometry relative="1" as="geometry" />
        </mxCell>
        <mxCell id="vYxDUjJa28USv8poC4iU-25" value="Записаться на повторный прием" style="points=[[0.25,0,0],[0.5,0,0],[0.75,0,0],[1,0.25,0],[1,0.5,0],[1,0.75,0],[0.75,1,0],[0.5,1,0],[0.25,1,0],[0,0.75,0],[0,0.5,0],[0,0.25,0]];shape=mxgraph.bpmn.task;whiteSpace=wrap;rectStyle=rounded;size=10;html=1;taskMarker=abstract;isLoopSub=1;fontSize=11;" parent="IdnZMxnS1Rqda_gSgM-b-1" vertex="1">
          <mxGeometry x="3390" y="40" width="120" height="80" as="geometry" />
        </mxCell>
        <mxCell id="IdnZMxnS1Rqda_gSgM-b-52" value="" style="edgeStyle=elbowEdgeStyle;fontSize=12;html=1;endArrow=blockThin;endFill=1;rounded=0;exitX=1;exitY=0.5;exitDx=0;exitDy=0;exitPerimeter=0;entryX=0;entryY=0.5;entryDx=0;entryDy=0;entryPerimeter=0;" parent="IdnZMxnS1Rqda_gSgM-b-1" source="vYxDUjJa28USv8poC4iU-23" target="vYxDUjJa28USv8poC4iU-20" edge="1">
          <mxGeometry width="160" relative="1" as="geometry">
            <mxPoint x="3120" y="150" as="sourcePoint" />
            <mxPoint x="3260" y="70" as="targetPoint" />
          </mxGeometry>
        </mxCell>
        <mxCell id="vYxDUjJa28USv8poC4iU-20" value="&lt;font style=&quot;font-size: 11px;&quot;&gt;Обследование&amp;nbsp;&lt;br&gt;пройдено&lt;br&gt;&lt;/font&gt;" style="points=[[0.145,0.145,0],[0.5,0,0],[0.855,0.145,0],[1,0.5,0],[0.855,0.855,0],[0.5,1,0],[0.145,0.855,0],[0,0.5,0]];shape=mxgraph.bpmn.event;html=1;verticalLabelPosition=bottom;labelBackgroundColor=#ffffff;verticalAlign=top;align=center;perimeter=ellipsePerimeter;outlineConnect=0;aspect=fixed;outline=boundInt;symbol=terminate2;" parent="IdnZMxnS1Rqda_gSgM-b-1" vertex="1">
          <mxGeometry x="3280" y="55" width="50" height="50" as="geometry" />
        </mxCell>
        <mxCell id="IdnZMxnS1Rqda_gSgM-b-56" value="" style="edgeStyle=elbowEdgeStyle;fontSize=12;html=1;endArrow=blockThin;endFill=1;rounded=0;exitX=1;exitY=0.5;exitDx=0;exitDy=0;exitPerimeter=0;entryX=0;entryY=0.5;entryDx=0;entryDy=0;entryPerimeter=0;" parent="IdnZMxnS1Rqda_gSgM-b-1" source="vYxDUjJa28USv8poC4iU-20" target="vYxDUjJa28USv8poC4iU-25" edge="1">
          <mxGeometry width="160" relative="1" as="geometry">
            <mxPoint x="3300" y="20" as="sourcePoint" />
            <mxPoint x="3460" y="20" as="targetPoint" />
          </mxGeometry>
        </mxCell>
        <mxCell id="z06Lk7gCF3U0c66Gr2mV-19" value="Запись на &lt;br&gt;приём создана" style="points=[[0.145,0.145,0],[0.5,0,0],[0.855,0.145,0],[1,0.5,0],[0.855,0.855,0],[0.5,1,0],[0.145,0.855,0],[0,0.5,0]];shape=mxgraph.bpmn.event;html=1;verticalLabelPosition=bottom;labelBackgroundColor=#ffffff;verticalAlign=top;align=center;perimeter=ellipsePerimeter;outlineConnect=0;aspect=fixed;outline=end;symbol=general;" parent="IdnZMxnS1Rqda_gSgM-b-1" vertex="1">
          <mxGeometry x="3570" y="54" width="50" height="50" as="geometry" />
        </mxCell>
        <mxCell id="IdnZMxnS1Rqda_gSgM-b-2" value="&lt;span style=&quot;background-color: rgb(251, 251, 251);&quot;&gt;Медицинская клиника&amp;nbsp;&lt;/span&gt;&lt;span style=&quot;border-color: var(--border-color); background-color: rgb(251, 251, 251); text-align: start; fill: rgb(144, 101, 176);&quot; data-reactroot=&quot;&quot; class=&quot;notion-enable-hover&quot; data-token-index=&quot;0&quot;&gt;«Вита» имени Е.Л. Яницкой&lt;/span&gt;" style="swimlane;html=1;childLayout=stackLayout;resizeParent=1;resizeParentMax=0;horizontal=0;startSize=20;horizontalStack=0;whiteSpace=wrap;" parent="1" vertex="1">
          <mxGeometry y="-200" width="3980" height="520" as="geometry" />
        </mxCell>
        <mxCell id="IdnZMxnS1Rqda_gSgM-b-6" value="Администратор" style="swimlane;html=1;startSize=20;horizontal=0;fontSize=10;" parent="IdnZMxnS1Rqda_gSgM-b-2" vertex="1">
          <mxGeometry x="20" width="3960" height="320" as="geometry" />
        </mxCell>
        <mxCell id="IdnZMxnS1Rqda_gSgM-b-30" value="" style="edgeStyle=orthogonalEdgeStyle;rounded=0;orthogonalLoop=1;jettySize=auto;html=1;fontSize=10;startArrow=none;startFill=0;" parent="IdnZMxnS1Rqda_gSgM-b-6" source="vYxDUjJa28USv8poC4iU-2" target="lyHiHrtcFeHxre6jff14-16" edge="1">
          <mxGeometry relative="1" as="geometry">
            <mxPoint x="1700" y="50" as="targetPoint" />
          </mxGeometry>
        </mxCell>
        <mxCell id="vYxDUjJa28USv8poC4iU-2" value="Поступил&lt;br&gt;&amp;nbsp;звонок &amp;nbsp;" style="points=[[0.145,0.145,0],[0.5,0,0],[0.855,0.145,0],[1,0.5,0],[0.855,0.855,0],[0.5,1,0],[0.145,0.855,0],[0,0.5,0]];shape=mxgraph.bpmn.event;html=1;verticalLabelPosition=middle;labelBackgroundColor=#ffffff;verticalAlign=middle;align=right;perimeter=ellipsePerimeter;outlineConnect=0;aspect=fixed;outline=standard;symbol=message;labelPosition=left;" parent="IdnZMxnS1Rqda_gSgM-b-6" vertex="1">
          <mxGeometry x="1625" y="15" width="50" height="50" as="geometry" />
        </mxCell>
        <mxCell id="IdnZMxnS1Rqda_gSgM-b-35" value="" style="edgeStyle=orthogonalEdgeStyle;rounded=0;orthogonalLoop=1;jettySize=auto;html=1;fontSize=18;startArrow=none;startFill=0;" parent="IdnZMxnS1Rqda_gSgM-b-6" source="vYxDUjJa28USv8poC4iU-3" edge="1">
          <mxGeometry relative="1" as="geometry">
            <mxPoint x="1960" y="230" as="targetPoint" />
          </mxGeometry>
        </mxCell>
        <mxCell id="vYxDUjJa28USv8poC4iU-3" value="Уточнить график работы процедурного кабинета" style="points=[[0.25,0,0],[0.5,0,0],[0.75,0,0],[1,0.25,0],[1,0.5,0],[1,0.75,0],[0.75,1,0],[0.5,1,0],[0.25,1,0],[0,0.75,0],[0,0.5,0],[0,0.25,0]];shape=mxgraph.bpmn.task;whiteSpace=wrap;rectStyle=rounded;size=10;html=1;taskMarker=abstract;fontSize=11;" parent="IdnZMxnS1Rqda_gSgM-b-6" vertex="1">
          <mxGeometry x="1725" y="190" width="120" height="80" as="geometry" />
        </mxCell>
        <mxCell id="IdnZMxnS1Rqda_gSgM-b-40" value="" style="edgeStyle=orthogonalEdgeStyle;rounded=0;orthogonalLoop=1;jettySize=auto;html=1;fontSize=15;startArrow=none;startFill=0;entryX=1;entryY=0.5;entryDx=0;entryDy=0;entryPerimeter=0;" parent="IdnZMxnS1Rqda_gSgM-b-6" source="vYxDUjJa28USv8poC4iU-5" target="lyHiHrtcFeHxre6jff14-16" edge="1">
          <mxGeometry relative="1" as="geometry">
            <mxPoint x="1810" y="50" as="targetPoint" />
          </mxGeometry>
        </mxCell>
        <mxCell id="vYxDUjJa28USv8poC4iU-5" value="Поступил звонок" style="points=[[0.145,0.145,0],[0.5,0,0],[0.855,0.145,0],[1,0.5,0],[0.855,0.855,0],[0.5,1,0],[0.145,0.855,0],[0,0.5,0]];shape=mxgraph.bpmn.event;html=1;verticalLabelPosition=bottom;labelBackgroundColor=#ffffff;verticalAlign=top;align=center;perimeter=ellipsePerimeter;outlineConnect=0;aspect=fixed;outline=standard;symbol=message;fontSize=11;" parent="IdnZMxnS1Rqda_gSgM-b-6" vertex="1">
          <mxGeometry x="2405" y="30" width="50" height="50" as="geometry" />
        </mxCell>
        <mxCell id="IdnZMxnS1Rqda_gSgM-b-41" value="" style="edgeStyle=orthogonalEdgeStyle;rounded=0;orthogonalLoop=1;jettySize=auto;html=1;fontSize=15;startArrow=none;startFill=0;entryX=0;entryY=0.5;entryDx=0;entryDy=0;entryPerimeter=0;" parent="IdnZMxnS1Rqda_gSgM-b-6" source="vYxDUjJa28USv8poC4iU-4" target="vYxDUjJa28USv8poC4iU-6" edge="1">
          <mxGeometry relative="1" as="geometry">
            <mxPoint x="2680" y="150" as="targetPoint" />
          </mxGeometry>
        </mxCell>
        <mxCell id="vYxDUjJa28USv8poC4iU-4" value="Проверить статус анализов" style="points=[[0.25,0,0],[0.5,0,0],[0.75,0,0],[1,0.25,0],[1,0.5,0],[1,0.75,0],[0.75,1,0],[0.5,1,0],[0.25,1,0],[0,0.75,0],[0,0.5,0],[0,0.25,0]];shape=mxgraph.bpmn.task;whiteSpace=wrap;rectStyle=rounded;size=10;html=1;taskMarker=abstract;fontSize=11;" parent="IdnZMxnS1Rqda_gSgM-b-6" vertex="1">
          <mxGeometry x="2520" y="95" width="120" height="80" as="geometry" />
        </mxCell>
        <mxCell id="IdnZMxnS1Rqda_gSgM-b-42" value="Нет" style="edgeStyle=elbowEdgeStyle;fontSize=12;html=1;endArrow=blockThin;endFill=1;rounded=0;entryX=0;entryY=0.5;entryDx=0;entryDy=0;entryPerimeter=0;exitX=0.5;exitY=0;exitDx=0;exitDy=0;exitPerimeter=0;" parent="IdnZMxnS1Rqda_gSgM-b-6" source="vYxDUjJa28USv8poC4iU-6" target="vYxDUjJa28USv8poC4iU-7" edge="1">
          <mxGeometry width="160" relative="1" as="geometry">
            <mxPoint x="2700" y="90" as="sourcePoint" />
            <mxPoint x="2810" y="60" as="targetPoint" />
            <Array as="points">
              <mxPoint x="2715" y="80" />
            </Array>
          </mxGeometry>
        </mxCell>
        <mxCell id="vYxDUjJa28USv8poC4iU-7" value="Попросить пациента перезвонить завтра" style="points=[[0.25,0,0],[0.5,0,0],[0.75,0,0],[1,0.25,0],[1,0.5,0],[1,0.75,0],[0.75,1,0],[0.5,1,0],[0.25,1,0],[0,0.75,0],[0,0.5,0],[0,0.25,0]];shape=mxgraph.bpmn.task;whiteSpace=wrap;rectStyle=rounded;size=10;html=1;taskMarker=abstract;fontSize=11;" parent="IdnZMxnS1Rqda_gSgM-b-6" vertex="1">
          <mxGeometry x="2810" y="15" width="120" height="80" as="geometry" />
        </mxCell>
        <mxCell id="IdnZMxnS1Rqda_gSgM-b-54" value="" style="edgeStyle=orthogonalEdgeStyle;rounded=0;orthogonalLoop=1;jettySize=auto;html=1;fontSize=15;startArrow=none;startFill=0;" parent="IdnZMxnS1Rqda_gSgM-b-6" source="vYxDUjJa28USv8poC4iU-8" target="IdnZMxnS1Rqda_gSgM-b-53" edge="1">
          <mxGeometry relative="1" as="geometry" />
        </mxCell>
        <mxCell id="vYxDUjJa28USv8poC4iU-8" value="Передать информацию о готовности результатов" style="points=[[0.25,0,0],[0.5,0,0],[0.75,0,0],[1,0.25,0],[1,0.5,0],[1,0.75,0],[0.75,1,0],[0.5,1,0],[0.25,1,0],[0,0.75,0],[0,0.5,0],[0,0.25,0]];shape=mxgraph.bpmn.task;whiteSpace=wrap;rectStyle=rounded;size=10;html=1;taskMarker=abstract;fontSize=11;" parent="IdnZMxnS1Rqda_gSgM-b-6" vertex="1">
          <mxGeometry x="3015" y="95" width="120" height="80" as="geometry" />
        </mxCell>
        <mxCell id="IdnZMxnS1Rqda_gSgM-b-43" value="Да" style="edgeStyle=elbowEdgeStyle;fontSize=12;html=1;endArrow=blockThin;endFill=1;rounded=0;entryX=0;entryY=0.5;entryDx=0;entryDy=0;entryPerimeter=0;exitX=1;exitY=0.5;exitDx=0;exitDy=0;exitPerimeter=0;" parent="IdnZMxnS1Rqda_gSgM-b-6" source="vYxDUjJa28USv8poC4iU-6" target="vYxDUjJa28USv8poC4iU-8" edge="1">
          <mxGeometry width="160" relative="1" as="geometry">
            <mxPoint x="2790" y="140" as="sourcePoint" />
            <mxPoint x="2890" y="170" as="targetPoint" />
          </mxGeometry>
        </mxCell>
        <mxCell id="vYxDUjJa28USv8poC4iU-6" value="&lt;font style=&quot;font-size: 12px;&quot;&gt;Анализы готовы?&lt;/font&gt;" style="points=[[0.25,0.25,0],[0.5,0,0],[0.75,0.25,0],[1,0.5,0],[0.75,0.75,0],[0.5,1,0],[0.25,0.75,0],[0,0.5,0]];shape=mxgraph.bpmn.gateway2;html=1;verticalLabelPosition=bottom;labelBackgroundColor=#ffffff;verticalAlign=top;align=center;perimeter=rhombusPerimeter;outlineConnect=0;outline=none;symbol=none;gwType=exclusive;fontSize=10;labelPosition=center;" parent="IdnZMxnS1Rqda_gSgM-b-6" vertex="1">
          <mxGeometry x="2690" y="110" width="50" height="50" as="geometry" />
        </mxCell>
        <mxCell id="IdnZMxnS1Rqda_gSgM-b-60" value="" style="edgeStyle=orthogonalEdgeStyle;rounded=0;orthogonalLoop=1;jettySize=auto;html=1;fontSize=15;startArrow=none;startFill=0;" parent="IdnZMxnS1Rqda_gSgM-b-6" source="IdnZMxnS1Rqda_gSgM-b-53" target="IdnZMxnS1Rqda_gSgM-b-58" edge="1">
          <mxGeometry relative="1" as="geometry" />
        </mxCell>
        <mxCell id="IdnZMxnS1Rqda_gSgM-b-53" value="" style="points=[[0.25,0.25,0],[0.5,0,0],[0.75,0.25,0],[1,0.5,0],[0.75,0.75,0],[0.5,1,0],[0.25,0.75,0],[0,0.5,0]];shape=mxgraph.bpmn.gateway2;html=1;verticalLabelPosition=bottom;labelBackgroundColor=#ffffff;verticalAlign=top;align=center;perimeter=rhombusPerimeter;outlineConnect=0;outline=none;symbol=none;gwType=exclusive;fontSize=10;labelPosition=center;" parent="IdnZMxnS1Rqda_gSgM-b-6" vertex="1">
          <mxGeometry x="3200" y="110" width="50" height="50" as="geometry" />
        </mxCell>
        <mxCell id="IdnZMxnS1Rqda_gSgM-b-55" value="" style="edgeStyle=elbowEdgeStyle;fontSize=12;html=1;endArrow=blockThin;endFill=1;rounded=0;exitX=1;exitY=0.5;exitDx=0;exitDy=0;exitPerimeter=0;entryX=0.5;entryY=0;entryDx=0;entryDy=0;entryPerimeter=0;" parent="IdnZMxnS1Rqda_gSgM-b-6" source="vYxDUjJa28USv8poC4iU-7" target="IdnZMxnS1Rqda_gSgM-b-53" edge="1">
          <mxGeometry width="160" relative="1" as="geometry">
            <mxPoint x="3210" y="40" as="sourcePoint" />
            <mxPoint x="3370" y="40" as="targetPoint" />
            <Array as="points">
              <mxPoint x="3225" y="80" />
            </Array>
          </mxGeometry>
        </mxCell>
        <mxCell id="lyHiHrtcFeHxre6jff14-7" style="edgeStyle=orthogonalEdgeStyle;rounded=0;orthogonalLoop=1;jettySize=auto;html=1;entryX=0.5;entryY=0;entryDx=0;entryDy=0;entryPerimeter=0;" parent="IdnZMxnS1Rqda_gSgM-b-6" source="IdnZMxnS1Rqda_gSgM-b-58" target="lyHiHrtcFeHxre6jff14-4" edge="1">
          <mxGeometry relative="1" as="geometry" />
        </mxCell>
        <mxCell id="IdnZMxnS1Rqda_gSgM-b-58" value="Статус анализов &lt;br&gt;передан" style="points=[[0.145,0.145,0],[0.5,0,0],[0.855,0.145,0],[1,0.5,0],[0.855,0.855,0],[0.5,1,0],[0.145,0.855,0],[0,0.5,0]];shape=mxgraph.bpmn.event;html=1;verticalLabelPosition=bottom;labelBackgroundColor=#ffffff;verticalAlign=top;align=center;perimeter=ellipsePerimeter;outlineConnect=0;aspect=fixed;outline=catching;symbol=general;" parent="IdnZMxnS1Rqda_gSgM-b-6" vertex="1">
          <mxGeometry x="3320" y="110" width="50" height="50" as="geometry" />
        </mxCell>
        <mxCell id="lyHiHrtcFeHxre6jff14-8" style="edgeStyle=orthogonalEdgeStyle;rounded=0;orthogonalLoop=1;jettySize=auto;html=1;entryX=0.5;entryY=1;entryDx=0;entryDy=0;entryPerimeter=0;" parent="IdnZMxnS1Rqda_gSgM-b-6" source="lyHiHrtcFeHxre6jff14-3" target="lyHiHrtcFeHxre6jff14-4" edge="1">
          <mxGeometry relative="1" as="geometry" />
        </mxCell>
        <mxCell id="lyHiHrtcFeHxre6jff14-3" value="Расписание процедурного &lt;br&gt;кабинета передано" style="points=[[0.145,0.145,0],[0.5,0,0],[0.855,0.145,0],[1,0.5,0],[0.855,0.855,0],[0.5,1,0],[0.145,0.855,0],[0,0.5,0]];shape=mxgraph.bpmn.event;html=1;verticalLabelPosition=bottom;labelBackgroundColor=#ffffff;verticalAlign=top;align=center;perimeter=ellipsePerimeter;outlineConnect=0;aspect=fixed;outline=catching;symbol=general;" parent="IdnZMxnS1Rqda_gSgM-b-6" vertex="1">
          <mxGeometry x="1960" y="205" width="50" height="50" as="geometry" />
        </mxCell>
        <mxCell id="lyHiHrtcFeHxre6jff14-6" style="edgeStyle=orthogonalEdgeStyle;rounded=0;orthogonalLoop=1;jettySize=auto;html=1;entryX=0;entryY=0.5;entryDx=0;entryDy=0;entryPerimeter=0;" parent="IdnZMxnS1Rqda_gSgM-b-6" source="lyHiHrtcFeHxre6jff14-4" target="lyHiHrtcFeHxre6jff14-5" edge="1">
          <mxGeometry relative="1" as="geometry" />
        </mxCell>
        <mxCell id="lyHiHrtcFeHxre6jff14-4" value="" style="points=[[0.25,0.25,0],[0.5,0,0],[0.75,0.25,0],[1,0.5,0],[0.75,0.75,0],[0.5,1,0],[0.25,0.75,0],[0,0.5,0]];shape=mxgraph.bpmn.gateway2;html=1;verticalLabelPosition=bottom;labelBackgroundColor=#ffffff;verticalAlign=top;align=center;perimeter=rhombusPerimeter;outlineConnect=0;outline=none;symbol=none;gwType=exclusive;fontSize=10;labelPosition=center;" parent="IdnZMxnS1Rqda_gSgM-b-6" vertex="1">
          <mxGeometry x="3460" y="160" width="50" height="50" as="geometry" />
        </mxCell>
        <mxCell id="lyHiHrtcFeHxre6jff14-5" value="Звонок завершён" style="points=[[0.145,0.145,0],[0.5,0,0],[0.855,0.145,0],[1,0.5,0],[0.855,0.855,0],[0.5,1,0],[0.145,0.855,0],[0,0.5,0]];shape=mxgraph.bpmn.event;html=1;verticalLabelPosition=bottom;labelBackgroundColor=#ffffff;verticalAlign=top;align=center;perimeter=ellipsePerimeter;outlineConnect=0;aspect=fixed;outline=end;symbol=general;" parent="IdnZMxnS1Rqda_gSgM-b-6" vertex="1">
          <mxGeometry x="3600" y="160" width="50" height="50" as="geometry" />
        </mxCell>
        <mxCell id="lyHiHrtcFeHxre6jff14-14" style="edgeStyle=orthogonalEdgeStyle;rounded=0;orthogonalLoop=1;jettySize=auto;html=1;entryX=0.5;entryY=0;entryDx=0;entryDy=0;entryPerimeter=0;exitX=0.5;exitY=1;exitDx=0;exitDy=0;exitPerimeter=0;" parent="IdnZMxnS1Rqda_gSgM-b-6" source="lyHiHrtcFeHxre6jff14-16" target="lyHiHrtcFeHxre6jff14-10" edge="1">
          <mxGeometry relative="1" as="geometry">
            <mxPoint x="1750" y="80" as="sourcePoint" />
          </mxGeometry>
        </mxCell>
        <mxCell id="lyHiHrtcFeHxre6jff14-11" value="Узнать &lt;br&gt;расписание" style="edgeStyle=orthogonalEdgeStyle;rounded=0;orthogonalLoop=1;jettySize=auto;html=1;entryX=0;entryY=0.5;entryDx=0;entryDy=0;entryPerimeter=0;exitX=0.5;exitY=1;exitDx=0;exitDy=0;exitPerimeter=0;" parent="IdnZMxnS1Rqda_gSgM-b-6" source="lyHiHrtcFeHxre6jff14-10" target="vYxDUjJa28USv8poC4iU-3" edge="1">
          <mxGeometry x="-0.2725" relative="1" as="geometry">
            <mxPoint as="offset" />
          </mxGeometry>
        </mxCell>
        <mxCell id="lyHiHrtcFeHxre6jff14-12" style="edgeStyle=orthogonalEdgeStyle;rounded=0;orthogonalLoop=1;jettySize=auto;html=1;" parent="IdnZMxnS1Rqda_gSgM-b-6" source="lyHiHrtcFeHxre6jff14-10" target="vYxDUjJa28USv8poC4iU-4" edge="1">
          <mxGeometry relative="1" as="geometry" />
        </mxCell>
        <mxCell id="lyHiHrtcFeHxre6jff14-13" value="Узнать статус анализов" style="edgeLabel;html=1;align=center;verticalAlign=middle;resizable=0;points=[];" parent="lyHiHrtcFeHxre6jff14-12" vertex="1" connectable="0">
          <mxGeometry x="-0.3903" y="-2" relative="1" as="geometry">
            <mxPoint as="offset" />
          </mxGeometry>
        </mxCell>
        <mxCell id="lyHiHrtcFeHxre6jff14-10" value="О чём вопрос пациента?" style="points=[[0.25,0.25,0],[0.5,0,0],[0.75,0.25,0],[1,0.5,0],[0.75,0.75,0],[0.5,1,0],[0.25,0.75,0],[0,0.5,0]];shape=mxgraph.bpmn.gateway2;html=1;verticalLabelPosition=middle;labelBackgroundColor=#ffffff;verticalAlign=middle;align=right;perimeter=rhombusPerimeter;outlineConnect=0;outline=none;symbol=none;gwType=exclusive;fontSize=10;labelPosition=left;" parent="IdnZMxnS1Rqda_gSgM-b-6" vertex="1">
          <mxGeometry x="1660" y="110" width="50" height="50" as="geometry" />
        </mxCell>
        <mxCell id="lyHiHrtcFeHxre6jff14-16" value="" style="points=[[0.25,0.25,0],[0.5,0,0],[0.75,0.25,0],[1,0.5,0],[0.75,0.75,0],[0.5,1,0],[0.25,0.75,0],[0,0.5,0]];shape=mxgraph.bpmn.gateway2;html=1;verticalLabelPosition=bottom;labelBackgroundColor=#ffffff;verticalAlign=top;align=center;perimeter=rhombusPerimeter;outlineConnect=0;outline=standard;symbol=general;" parent="IdnZMxnS1Rqda_gSgM-b-6" vertex="1">
          <mxGeometry x="1720" y="15" width="50" height="50" as="geometry" />
        </mxCell>
        <mxCell id="IdnZMxnS1Rqda_gSgM-b-4" value="Врач" style="swimlane;html=1;startSize=20;horizontal=0;fontSize=10;" parent="IdnZMxnS1Rqda_gSgM-b-2" vertex="1">
          <mxGeometry x="20" y="320" width="3960" height="200" as="geometry" />
        </mxCell>
        <mxCell id="IdnZMxnS1Rqda_gSgM-b-10" value="" style="edgeStyle=orthogonalEdgeStyle;rounded=0;orthogonalLoop=1;jettySize=auto;html=1;fontSize=10;startArrow=none;startFill=0;" parent="IdnZMxnS1Rqda_gSgM-b-4" source="z06Lk7gCF3U0c66Gr2mV-21" target="vYxDUjJa28USv8poC4iU-11" edge="1">
          <mxGeometry relative="1" as="geometry" />
        </mxCell>
        <mxCell id="z06Lk7gCF3U0c66Gr2mV-21" value="&lt;span style=&quot;font-size: 11px;&quot;&gt;Пациент пришел на прием&lt;/span&gt;" style="points=[[0.145,0.145,0],[0.5,0,0],[0.855,0.145,0],[1,0.5,0],[0.855,0.855,0],[0.5,1,0],[0.145,0.855,0],[0,0.5,0]];shape=mxgraph.bpmn.event;html=1;verticalLabelPosition=bottom;labelBackgroundColor=#ffffff;verticalAlign=top;align=center;perimeter=ellipsePerimeter;outlineConnect=0;aspect=fixed;outline=standard;symbol=message;" parent="IdnZMxnS1Rqda_gSgM-b-4" vertex="1">
          <mxGeometry x="205" y="70" width="50" height="50" as="geometry" />
        </mxCell>
        <mxCell id="IdnZMxnS1Rqda_gSgM-b-11" value="" style="edgeStyle=orthogonalEdgeStyle;rounded=0;orthogonalLoop=1;jettySize=auto;html=1;fontSize=10;startArrow=none;startFill=0;" parent="IdnZMxnS1Rqda_gSgM-b-4" source="vYxDUjJa28USv8poC4iU-11" target="vYxDUjJa28USv8poC4iU-16" edge="1">
          <mxGeometry relative="1" as="geometry" />
        </mxCell>
        <mxCell id="vYxDUjJa28USv8poC4iU-11" value="Провести осмотр" style="points=[[0.25,0,0],[0.5,0,0],[0.75,0,0],[1,0.25,0],[1,0.5,0],[1,0.75,0],[0.75,1,0],[0.5,1,0],[0.25,1,0],[0,0.75,0],[0,0.5,0],[0,0.25,0]];shape=mxgraph.bpmn.task;whiteSpace=wrap;rectStyle=rounded;size=10;taskMarker=abstract;isLoopSub=1;labelBackgroundColor=#FFFFFF;fontSize=11;fontColor=#000000;fillColor=#FFFFFF;" parent="IdnZMxnS1Rqda_gSgM-b-4" vertex="1">
          <mxGeometry x="339" y="55" width="120" height="80" as="geometry" />
        </mxCell>
        <mxCell id="vYxDUjJa28USv8poC4iU-16" value="Диагноз поставлен?" style="points=[[0.25,0.25,0],[0.5,0,0],[0.75,0.25,0],[1,0.5,0],[0.75,0.75,0],[0.5,1,0],[0.25,0.75,0],[0,0.5,0]];shape=mxgraph.bpmn.gateway2;html=1;verticalLabelPosition=middle;labelBackgroundColor=#ffffff;verticalAlign=middle;align=left;perimeter=rhombusPerimeter;outlineConnect=0;outline=none;symbol=none;gwType=exclusive;fontSize=11;labelPosition=right;" parent="IdnZMxnS1Rqda_gSgM-b-4" vertex="1">
          <mxGeometry x="520" y="70" width="50" height="50" as="geometry" />
        </mxCell>
        <mxCell id="IdnZMxnS1Rqda_gSgM-b-15" value="" style="edgeStyle=orthogonalEdgeStyle;rounded=0;orthogonalLoop=1;jettySize=auto;html=1;fontSize=10;startArrow=none;startFill=0;" parent="IdnZMxnS1Rqda_gSgM-b-4" source="vYxDUjJa28USv8poC4iU-14" target="vYxDUjJa28USv8poC4iU-18" edge="1">
          <mxGeometry relative="1" as="geometry" />
        </mxCell>
        <mxCell id="vYxDUjJa28USv8poC4iU-14" value="Назначить медикаментозное лечение" style="points=[[0.25,0,0],[0.5,0,0],[0.75,0,0],[1,0.25,0],[1,0.5,0],[1,0.75,0],[0.75,1,0],[0.5,1,0],[0.25,1,0],[0,0.75,0],[0,0.5,0],[0,0.25,0]];shape=mxgraph.bpmn.task;whiteSpace=wrap;rectStyle=rounded;size=10;taskMarker=abstract;fontSize=11;" parent="IdnZMxnS1Rqda_gSgM-b-4" vertex="1">
          <mxGeometry x="740" y="55" width="120" height="80" as="geometry" />
        </mxCell>
        <mxCell id="IdnZMxnS1Rqda_gSgM-b-14" value="Да" style="edgeStyle=orthogonalEdgeStyle;rounded=0;orthogonalLoop=1;jettySize=auto;html=1;fontSize=10;startArrow=none;startFill=0;exitX=0.5;exitY=0;exitDx=0;exitDy=0;exitPerimeter=0;entryX=0.531;entryY=0.013;entryDx=0;entryDy=0;entryPerimeter=0;" parent="IdnZMxnS1Rqda_gSgM-b-4" source="vYxDUjJa28USv8poC4iU-16" target="vYxDUjJa28USv8poC4iU-14" edge="1">
          <mxGeometry x="-0.6026" relative="1" as="geometry">
            <Array as="points">
              <mxPoint x="545" y="30" />
              <mxPoint x="804" y="30" />
            </Array>
            <mxPoint as="offset" />
          </mxGeometry>
        </mxCell>
        <mxCell id="IdnZMxnS1Rqda_gSgM-b-22" value="" style="edgeStyle=orthogonalEdgeStyle;rounded=0;orthogonalLoop=1;jettySize=auto;html=1;fontSize=10;startArrow=none;startFill=0;" parent="IdnZMxnS1Rqda_gSgM-b-4" source="vYxDUjJa28USv8poC4iU-18" target="vYxDUjJa28USv8poC4iU-17" edge="1">
          <mxGeometry relative="1" as="geometry" />
        </mxCell>
        <mxCell id="vYxDUjJa28USv8poC4iU-18" value="Распечатать назначение на медикаментозное лечение" style="points=[[0.25,0,0],[0.5,0,0],[0.75,0,0],[1,0.25,0],[1,0.5,0],[1,0.75,0],[0.75,1,0],[0.5,1,0],[0.25,1,0],[0,0.75,0],[0,0.5,0],[0,0.25,0]];shape=mxgraph.bpmn.task;whiteSpace=wrap;rectStyle=rounded;size=10;taskMarker=abstract;fontSize=11;" parent="IdnZMxnS1Rqda_gSgM-b-4" vertex="1">
          <mxGeometry x="890" y="55" width="120" height="80" as="geometry" />
        </mxCell>
        <mxCell id="vYxDUjJa28USv8poC4iU-17" value="&lt;font style=&quot;font-size: 11px;&quot;&gt;Пациент принят&lt;/font&gt;" style="points=[[0.145,0.145,0],[0.5,0,0],[0.855,0.145,0],[1,0.5,0],[0.855,0.855,0],[0.5,1,0],[0.145,0.855,0],[0,0.5,0]];shape=mxgraph.bpmn.event;html=1;verticalLabelPosition=bottom;labelBackgroundColor=#ffffff;verticalAlign=top;align=center;perimeter=ellipsePerimeter;outlineConnect=0;aspect=fixed;outline=end;symbol=terminate2;" parent="IdnZMxnS1Rqda_gSgM-b-4" vertex="1">
          <mxGeometry x="1070" y="70" width="50" height="50" as="geometry" />
        </mxCell>
        <mxCell id="IdnZMxnS1Rqda_gSgM-b-24" value="" style="edgeStyle=orthogonalEdgeStyle;rounded=0;orthogonalLoop=1;jettySize=auto;html=1;fontSize=10;startArrow=none;startFill=0;" parent="IdnZMxnS1Rqda_gSgM-b-4" source="vYxDUjJa28USv8poC4iU-15" target="vYxDUjJa28USv8poC4iU-19" edge="1">
          <mxGeometry relative="1" as="geometry" />
        </mxCell>
        <mxCell id="vYxDUjJa28USv8poC4iU-15" value="Назначить обследование " style="points=[[0.25,0,0],[0.5,0,0],[0.75,0,0],[1,0.25,0],[1,0.5,0],[1,0.75,0],[0.75,1,0],[0.5,1,0],[0.25,1,0],[0,0.75,0],[0,0.5,0],[0,0.25,0]];shape=mxgraph.bpmn.task;whiteSpace=wrap;rectStyle=rounded;size=10;taskMarker=abstract;fontSize=11;" parent="IdnZMxnS1Rqda_gSgM-b-4" vertex="1">
          <mxGeometry x="1300" y="55" width="120" height="80" as="geometry" />
        </mxCell>
        <mxCell id="IdnZMxnS1Rqda_gSgM-b-23" value="Нет" style="edgeStyle=elbowEdgeStyle;fontSize=12;html=1;endArrow=blockThin;endFill=1;rounded=0;exitX=0.5;exitY=1;exitDx=0;exitDy=0;exitPerimeter=0;" parent="IdnZMxnS1Rqda_gSgM-b-4" source="vYxDUjJa28USv8poC4iU-16" target="vYxDUjJa28USv8poC4iU-15" edge="1">
          <mxGeometry x="-0.8434" width="160" relative="1" as="geometry">
            <mxPoint x="530" y="160" as="sourcePoint" />
            <mxPoint x="1310" y="80" as="targetPoint" />
            <Array as="points">
              <mxPoint x="1240" y="170" />
              <mxPoint x="870" y="160" />
              <mxPoint x="1220" y="160" />
              <mxPoint x="890" y="170" />
              <mxPoint x="1040" y="170" />
              <mxPoint x="1200" y="110" />
            </Array>
            <mxPoint as="offset" />
          </mxGeometry>
        </mxCell>
        <mxCell id="IdnZMxnS1Rqda_gSgM-b-25" value="" style="edgeStyle=orthogonalEdgeStyle;rounded=0;orthogonalLoop=1;jettySize=auto;html=1;fontSize=10;startArrow=none;startFill=0;" parent="IdnZMxnS1Rqda_gSgM-b-4" source="vYxDUjJa28USv8poC4iU-19" target="vYxDUjJa28USv8poC4iU-12" edge="1">
          <mxGeometry relative="1" as="geometry" />
        </mxCell>
        <mxCell id="vYxDUjJa28USv8poC4iU-19" value="Распечатать назначение на обследование" style="points=[[0.25,0,0],[0.5,0,0],[0.75,0,0],[1,0.25,0],[1,0.5,0],[1,0.75,0],[0.75,1,0],[0.5,1,0],[0.25,1,0],[0,0.75,0],[0,0.5,0],[0,0.25,0]];shape=mxgraph.bpmn.task;whiteSpace=wrap;rectStyle=rounded;size=10;taskMarker=abstract;fontSize=11;" parent="IdnZMxnS1Rqda_gSgM-b-4" vertex="1">
          <mxGeometry x="1460" y="55" width="120" height="80" as="geometry" />
        </mxCell>
        <mxCell id="vYxDUjJa28USv8poC4iU-12" value="&lt;font style=&quot;font-size: 11px;&quot;&gt;Пациент принят&lt;/font&gt;" style="points=[[0.145,0.145,0],[0.5,0,0],[0.855,0.145,0],[1,0.5,0],[0.855,0.855,0],[0.5,1,0],[0.145,0.855,0],[0,0.5,0]];shape=mxgraph.bpmn.event;html=1;verticalLabelPosition=bottom;labelBackgroundColor=#ffffff;verticalAlign=top;align=center;perimeter=ellipsePerimeter;outlineConnect=0;aspect=fixed;outline=end;symbol=terminate2;" parent="IdnZMxnS1Rqda_gSgM-b-4" vertex="1">
          <mxGeometry x="1620" y="70" width="50" height="50" as="geometry" />
        </mxCell>
        <mxCell id="IdnZMxnS1Rqda_gSgM-b-12" value="" style="dashed=1;dashPattern=8 4;endArrow=blockThin;endFill=1;startArrow=oval;startFill=0;endSize=6;startSize=4;html=1;rounded=0;fontSize=10;exitX=0.5;exitY=1;exitDx=0;exitDy=0;exitPerimeter=0;entryX=0.5;entryY=0;entryDx=0;entryDy=0;entryPerimeter=0;" parent="1" source="z06Lk7gCF3U0c66Gr2mV-22" target="z06Lk7gCF3U0c66Gr2mV-21" edge="1">
          <mxGeometry width="160" relative="1" as="geometry">
            <mxPoint x="210" y="-100" as="sourcePoint" />
            <mxPoint x="370" y="-100" as="targetPoint" />
          </mxGeometry>
        </mxCell>
        <mxCell id="IdnZMxnS1Rqda_gSgM-b-18" value="" style="dashed=1;dashPattern=8 4;endArrow=blockThin;endFill=1;startArrow=oval;startFill=0;endSize=6;startSize=4;html=1;rounded=0;fontSize=10;entryX=0.5;entryY=1;entryDx=0;entryDy=0;entryPerimeter=0;exitX=0.5;exitY=0;exitDx=0;exitDy=0;exitPerimeter=0;" parent="1" source="vYxDUjJa28USv8poC4iU-18" target="vYxDUjJa28USv8poC4iU-31" edge="1">
          <mxGeometry width="160" relative="1" as="geometry">
            <mxPoint x="940" y="-130" as="sourcePoint" />
            <mxPoint x="1100" y="-130" as="targetPoint" />
          </mxGeometry>
        </mxCell>
        <mxCell id="IdnZMxnS1Rqda_gSgM-b-26" value="" style="dashed=1;dashPattern=8 4;endArrow=blockThin;endFill=1;startArrow=oval;startFill=0;endSize=6;startSize=4;html=1;rounded=0;fontSize=10;entryX=0.5;entryY=1;entryDx=0;entryDy=0;entryPerimeter=0;exitX=0.5;exitY=0;exitDx=0;exitDy=0;exitPerimeter=0;" parent="1" source="vYxDUjJa28USv8poC4iU-19" target="vYxDUjJa28USv8poC4iU-32" edge="1">
          <mxGeometry width="160" relative="1" as="geometry">
            <mxPoint x="1470" y="-60" as="sourcePoint" />
            <mxPoint x="1630" y="-60" as="targetPoint" />
          </mxGeometry>
        </mxCell>
        <mxCell id="IdnZMxnS1Rqda_gSgM-b-29" value="" style="dashed=1;dashPattern=8 4;endArrow=blockThin;endFill=1;startArrow=oval;startFill=0;endSize=6;startSize=4;html=1;rounded=0;fontSize=10;exitX=0.5;exitY=1;exitDx=0;exitDy=0;exitPerimeter=0;entryX=0.5;entryY=0;entryDx=0;entryDy=0;entryPerimeter=0;" parent="1" source="vYxDUjJa28USv8poC4iU-29" target="vYxDUjJa28USv8poC4iU-2" edge="1">
          <mxGeometry width="160" relative="1" as="geometry">
            <mxPoint x="1740" y="-160" as="sourcePoint" />
            <mxPoint x="1900" y="-160" as="targetPoint" />
          </mxGeometry>
        </mxCell>
        <mxCell id="IdnZMxnS1Rqda_gSgM-b-31" value="" style="dashed=1;dashPattern=8 4;endArrow=blockThin;endFill=1;startArrow=oval;startFill=0;endSize=6;startSize=4;html=1;rounded=0;fontSize=10;exitX=0.5;exitY=0;exitDx=0;exitDy=0;exitPerimeter=0;entryX=0.5;entryY=1;entryDx=0;entryDy=0;entryPerimeter=0;" parent="1" source="vYxDUjJa28USv8poC4iU-3" target="vYxDUjJa28USv8poC4iU-33" edge="1">
          <mxGeometry width="160" relative="1" as="geometry">
            <mxPoint x="1730" y="-180" as="sourcePoint" />
            <mxPoint x="1890" y="-180" as="targetPoint" />
          </mxGeometry>
        </mxCell>
        <mxCell id="IdnZMxnS1Rqda_gSgM-b-38" value="" style="dashed=1;dashPattern=8 4;endArrow=blockThin;endFill=1;startArrow=oval;startFill=0;endSize=6;startSize=4;html=1;rounded=0;fontSize=18;exitX=0.5;exitY=1;exitDx=0;exitDy=0;exitPerimeter=0;entryX=0.5;entryY=0;entryDx=0;entryDy=0;entryPerimeter=0;" parent="1" source="vYxDUjJa28USv8poC4iU-30" target="vYxDUjJa28USv8poC4iU-5" edge="1">
          <mxGeometry width="160" relative="1" as="geometry">
            <mxPoint x="2300" y="-170" as="sourcePoint" />
            <mxPoint x="2460" y="-170" as="targetPoint" />
          </mxGeometry>
        </mxCell>
        <mxCell id="IdnZMxnS1Rqda_gSgM-b-46" value="" style="dashed=1;dashPattern=8 4;endArrow=blockThin;endFill=1;startArrow=oval;startFill=0;endSize=6;startSize=4;html=1;rounded=0;fontSize=15;exitX=0.5;exitY=0;exitDx=0;exitDy=0;exitPerimeter=0;entryX=0.5;entryY=1;entryDx=0;entryDy=0;entryPerimeter=0;" parent="1" source="vYxDUjJa28USv8poC4iU-7" target="vYxDUjJa28USv8poC4iU-21" edge="1">
          <mxGeometry width="160" relative="1" as="geometry">
            <mxPoint x="2900" y="-280" as="sourcePoint" />
            <mxPoint x="3060" y="-280" as="targetPoint" />
          </mxGeometry>
        </mxCell>
        <mxCell id="IdnZMxnS1Rqda_gSgM-b-50" value="" style="dashed=1;dashPattern=8 4;endArrow=blockThin;endFill=1;startArrow=oval;startFill=0;endSize=6;startSize=4;html=1;rounded=0;fontSize=15;entryX=0.5;entryY=1;entryDx=0;entryDy=0;entryPerimeter=0;exitX=0.5;exitY=0;exitDx=0;exitDy=0;exitPerimeter=0;" parent="1" source="vYxDUjJa28USv8poC4iU-8" target="vYxDUjJa28USv8poC4iU-23" edge="1">
          <mxGeometry width="160" relative="1" as="geometry">
            <mxPoint x="3060" y="-150" as="sourcePoint" />
            <mxPoint x="3220" y="-150" as="targetPoint" />
          </mxGeometry>
        </mxCell>
      </root>
    </mxGraphModel>
  </diagram>
  <diagram id="rOVa1iTYufZRAWcNZ_0D" name="BPMN to-be">
    <mxGraphModel dx="3787" dy="2900" grid="1" gridSize="10" guides="1" tooltips="1" connect="1" arrows="1" fold="1" page="1" pageScale="1" pageWidth="827" pageHeight="1169" math="0" shadow="0">
      <root>
        <mxCell id="0" />
        <mxCell id="1" parent="0" />
        <mxCell id="JG4ZC1GHqZV7sJR1-iQO-19" value="&lt;h1&gt;&lt;font style=&quot;font-size: 40px;&quot;&gt;Задание&lt;/font&gt;&lt;/h1&gt;&lt;p style=&quot;font-size: 20px;&quot;&gt;&lt;font style=&quot;font-size: 20px;&quot;&gt;Теперь необходимо составить диаграмму бизнес-процесса с учетом автоматизации в нотации BPMN.&lt;/font&gt;&lt;/p&gt;&lt;p style=&quot;font-size: 20px;&quot;&gt;&lt;font style=&quot;font-size: 20px;&quot;&gt;1. Проанализируйте диаграмму процесса AS-IS на вкладке №1.&amp;nbsp;&lt;/font&gt;&lt;/p&gt;&lt;p style=&quot;font-size: 20px;&quot;&gt;&lt;font style=&quot;font-size: 20px;&quot;&gt;2. Вам необходимо составить диаграмму TO-BE в нотации BPMN при этом учесть потребность клиники в создании нового удобного и функционального приложения для пациентов, в котором необходимо реализовать удобную работу с назначениями врача и прохождения обследования.&lt;/font&gt;&lt;/p&gt;&lt;p style=&quot;font-size: 20px;&quot;&gt;&lt;font style=&quot;font-size: 20px;&quot;&gt;3. Начните составление диаграммы с выделения ролей. Возьмите за основу диаграмму AS-IS, с которой вы работали на вкладке №1.&lt;/font&gt;&lt;/p&gt;&lt;p style=&quot;font-size: 20px;&quot;&gt;&lt;font style=&quot;font-size: 20px;&quot;&gt;&lt;i&gt;Подсказка: роль Администратора в диаграмме TO-BE должна отсутствовать. Однако вы можете добавить новый пул с приложением.&lt;/i&gt;&lt;/font&gt;&lt;/p&gt;&lt;p style=&quot;font-size: 20px;&quot;&gt;&lt;font style=&quot;font-size: 20px;&quot;&gt;4. Ниже вам представлены задачи, который вы можете использовать в диаграмме. Вам необходимо в правильной последовательности расставить представленные элементы, дополнить их нужными событиями и шлюзами, а также корректно соединить их потоками.&lt;/font&gt;&lt;/p&gt;&lt;p style=&quot;font-size: 20px;&quot;&gt;&lt;font style=&quot;font-size: 20px;&quot;&gt;5.&amp;nbsp;&lt;/font&gt;Если вам не хватает информации в задании, то вы можете ее самостоятельно добавить в виде допущения.&lt;/p&gt;&lt;p style=&quot;font-size: 20px;&quot;&gt;&lt;font style=&quot;font-size: 20px;&quot;&gt;&lt;i&gt;Помните, что вы всегда можете оставить дополнительную информацию со своими размышлениями ревьюеру в виде пометок. Просто возьмите одну из карточек ниже.&amp;nbsp;&lt;/i&gt;&lt;br&gt;&lt;/font&gt;&lt;/p&gt;&lt;p style=&quot;font-size: 20px;&quot;&gt;&lt;font style=&quot;font-size: 20px;&quot;&gt;6. Готовый файл со всеми вкладками сохраните в формате .drawio, он понадобится вам в части проекта «Ревью»&lt;/font&gt;&lt;/p&gt;&lt;font style=&quot;font-size: 20px;&quot;&gt;&lt;br&gt;&lt;/font&gt;&lt;p style=&quot;font-size: 20px;&quot;&gt;&lt;br&gt;&lt;/p&gt;" style="text;html=1;strokeColor=#82b366;fillColor=#d5e8d4;spacing=5;spacingTop=-20;whiteSpace=wrap;overflow=hidden;rounded=0;fontSize=16;" parent="1" vertex="1">
          <mxGeometry x="-800" y="-1140" width="650" height="840" as="geometry" />
        </mxCell>
        <mxCell id="YS6oqYoZOVDC98tWYkDZ-2" value="Пациент" style="swimlane;startSize=20;horizontal=0;html=1;whiteSpace=wrap;" parent="1" vertex="1">
          <mxGeometry y="-420" width="2720" height="180" as="geometry" />
        </mxCell>
        <mxCell id="YS6oqYoZOVDC98tWYkDZ-96" value="" style="edgeStyle=orthogonalEdgeStyle;rounded=0;orthogonalLoop=1;jettySize=auto;html=1;fontSize=15;startArrow=none;startFill=0;" parent="YS6oqYoZOVDC98tWYkDZ-2" source="YS6oqYoZOVDC98tWYkDZ-6" target="IVNKlUDxnltK97aEj8LP-42" edge="1">
          <mxGeometry relative="1" as="geometry" />
        </mxCell>
        <mxCell id="YS6oqYoZOVDC98tWYkDZ-6" value="Медикаментозное&amp;nbsp;лечение&lt;br&gt;&amp;nbsp;назначено" style="points=[[0.145,0.145,0],[0.5,0,0],[0.855,0.145,0],[1,0.5,0],[0.855,0.855,0],[0.5,1,0],[0.145,0.855,0],[0,0.5,0]];shape=mxgraph.bpmn.event;html=1;verticalLabelPosition=top;labelBackgroundColor=#ffffff;verticalAlign=bottom;align=center;perimeter=ellipsePerimeter;outlineConnect=0;aspect=fixed;outline=catching;symbol=message;fontSize=11;labelPosition=center;perimeterSpacing=0;" parent="YS6oqYoZOVDC98tWYkDZ-2" vertex="1">
          <mxGeometry x="651" y="70" width="50" height="50" as="geometry" />
        </mxCell>
        <mxCell id="YS6oqYoZOVDC98tWYkDZ-8" value="" style="edgeStyle=orthogonalEdgeStyle;rounded=0;orthogonalLoop=1;jettySize=auto;html=1;fontSize=10;startArrow=none;startFill=0;" parent="YS6oqYoZOVDC98tWYkDZ-2" source="YS6oqYoZOVDC98tWYkDZ-9" target="YS6oqYoZOVDC98tWYkDZ-12" edge="1">
          <mxGeometry relative="1" as="geometry" />
        </mxCell>
        <mxCell id="YS6oqYoZOVDC98tWYkDZ-9" value="Купить медикаменты по назначению" style="points=[[0.25,0,0],[0.5,0,0],[0.75,0,0],[1,0.25,0],[1,0.5,0],[1,0.75,0],[0.75,1,0],[0.5,1,0],[0.25,1,0],[0,0.75,0],[0,0.5,0],[0,0.25,0]];shape=mxgraph.bpmn.task;whiteSpace=wrap;rectStyle=rounded;size=10;html=1;taskMarker=abstract;fontSize=11;" parent="YS6oqYoZOVDC98tWYkDZ-2" vertex="1">
          <mxGeometry x="911" y="55" width="120" height="80" as="geometry" />
        </mxCell>
        <mxCell id="YS6oqYoZOVDC98tWYkDZ-10" value="" style="edgeStyle=elbowEdgeStyle;fontSize=12;html=1;endArrow=blockThin;endFill=1;rounded=0;exitX=1;exitY=0.5;exitDx=0;exitDy=0;exitPerimeter=0;" parent="YS6oqYoZOVDC98tWYkDZ-2" source="IVNKlUDxnltK97aEj8LP-42" target="YS6oqYoZOVDC98tWYkDZ-9" edge="1">
          <mxGeometry width="160" relative="1" as="geometry">
            <mxPoint x="586" y="145" as="sourcePoint" />
            <mxPoint x="746" y="145" as="targetPoint" />
          </mxGeometry>
        </mxCell>
        <mxCell id="YS6oqYoZOVDC98tWYkDZ-11" value="" style="edgeStyle=orthogonalEdgeStyle;rounded=0;orthogonalLoop=1;jettySize=auto;html=1;fontSize=10;startArrow=none;startFill=0;" parent="YS6oqYoZOVDC98tWYkDZ-2" source="YS6oqYoZOVDC98tWYkDZ-12" target="YS6oqYoZOVDC98tWYkDZ-13" edge="1">
          <mxGeometry relative="1" as="geometry" />
        </mxCell>
        <mxCell id="YS6oqYoZOVDC98tWYkDZ-12" value="Пройти медикаментозное лечение" style="points=[[0.25,0,0],[0.5,0,0],[0.75,0,0],[1,0.25,0],[1,0.5,0],[1,0.75,0],[0.75,1,0],[0.5,1,0],[0.25,1,0],[0,0.75,0],[0,0.5,0],[0,0.25,0]];shape=mxgraph.bpmn.task;whiteSpace=wrap;rectStyle=rounded;size=10;html=1;taskMarker=abstract;fontSize=11;" parent="YS6oqYoZOVDC98tWYkDZ-2" vertex="1">
          <mxGeometry x="1071" y="55" width="120" height="80" as="geometry" />
        </mxCell>
        <mxCell id="YS6oqYoZOVDC98tWYkDZ-13" value="&lt;font style=&quot;font-size: 11px;&quot;&gt;Медикаментозное &lt;br&gt;лечение&amp;nbsp;&lt;br&gt;пройдено&lt;br&gt;&lt;/font&gt;" style="points=[[0.145,0.145,0],[0.5,0,0],[0.855,0.145,0],[1,0.5,0],[0.855,0.855,0],[0.5,1,0],[0.145,0.855,0],[0,0.5,0]];shape=mxgraph.bpmn.event;html=1;verticalLabelPosition=bottom;labelBackgroundColor=#ffffff;verticalAlign=top;align=center;perimeter=ellipsePerimeter;outlineConnect=0;aspect=fixed;outline=end;symbol=terminate2;" parent="YS6oqYoZOVDC98tWYkDZ-2" vertex="1">
          <mxGeometry x="1241" y="70" width="50" height="50" as="geometry" />
        </mxCell>
        <mxCell id="YS6oqYoZOVDC98tWYkDZ-14" value="" style="edgeStyle=orthogonalEdgeStyle;rounded=0;orthogonalLoop=1;jettySize=auto;html=1;fontSize=10;startArrow=none;startFill=0;entryX=0;entryY=0.5;entryDx=0;entryDy=0;entryPerimeter=0;" parent="YS6oqYoZOVDC98tWYkDZ-2" source="YS6oqYoZOVDC98tWYkDZ-15" target="IVNKlUDxnltK97aEj8LP-44" edge="1">
          <mxGeometry relative="1" as="geometry">
            <mxPoint x="1451" y="90" as="targetPoint" />
          </mxGeometry>
        </mxCell>
        <mxCell id="YS6oqYoZOVDC98tWYkDZ-15" value="Обследование&amp;nbsp;&lt;br&gt;назначено" style="points=[[0.145,0.145,0],[0.5,0,0],[0.855,0.145,0],[1,0.5,0],[0.855,0.855,0],[0.5,1,0],[0.145,0.855,0],[0,0.5,0]];shape=mxgraph.bpmn.event;html=1;verticalLabelPosition=top;labelBackgroundColor=#ffffff;verticalAlign=bottom;align=center;perimeter=ellipsePerimeter;outlineConnect=0;aspect=fixed;outline=standard;symbol=message;fontSize=11;labelPosition=center;" parent="YS6oqYoZOVDC98tWYkDZ-2" vertex="1">
          <mxGeometry x="1356" y="65" width="50" height="50" as="geometry" />
        </mxCell>
        <mxCell id="YS6oqYoZOVDC98tWYkDZ-16" value="" style="edgeStyle=orthogonalEdgeStyle;rounded=0;orthogonalLoop=1;jettySize=auto;html=1;fontSize=10;startArrow=none;startFill=0;entryX=0;entryY=0.5;entryDx=0;entryDy=0;entryPerimeter=0;exitX=1;exitY=0.5;exitDx=0;exitDy=0;exitPerimeter=0;" parent="YS6oqYoZOVDC98tWYkDZ-2" source="IVNKlUDxnltK97aEj8LP-44" target="IVNKlUDxnltK97aEj8LP-24" edge="1">
          <mxGeometry relative="1" as="geometry">
            <mxPoint x="1571" y="90" as="sourcePoint" />
            <mxPoint x="1621" y="90" as="targetPoint" />
          </mxGeometry>
        </mxCell>
        <mxCell id="YS6oqYoZOVDC98tWYkDZ-18" value="" style="edgeStyle=orthogonalEdgeStyle;rounded=0;orthogonalLoop=1;jettySize=auto;html=1;fontSize=10;startArrow=none;startFill=0;exitX=1;exitY=0.5;exitDx=0;exitDy=0;exitPerimeter=0;" parent="YS6oqYoZOVDC98tWYkDZ-2" source="IVNKlUDxnltK97aEj8LP-24" target="YS6oqYoZOVDC98tWYkDZ-21" edge="1">
          <mxGeometry relative="1" as="geometry">
            <mxPoint x="1671" y="90" as="sourcePoint" />
          </mxGeometry>
        </mxCell>
        <mxCell id="YS6oqYoZOVDC98tWYkDZ-20" value="" style="edgeStyle=orthogonalEdgeStyle;rounded=0;orthogonalLoop=1;jettySize=auto;html=1;fontSize=10;startArrow=none;startFill=0;" parent="YS6oqYoZOVDC98tWYkDZ-2" source="YS6oqYoZOVDC98tWYkDZ-21" target="YS6oqYoZOVDC98tWYkDZ-23" edge="1">
          <mxGeometry relative="1" as="geometry" />
        </mxCell>
        <mxCell id="YS6oqYoZOVDC98tWYkDZ-21" value="В нужное время&amp;nbsp;&lt;br&gt;по расписанию" style="points=[[0.145,0.145,0],[0.5,0,0],[0.855,0.145,0],[1,0.5,0],[0.855,0.855,0],[0.5,1,0],[0.145,0.855,0],[0,0.5,0]];shape=mxgraph.bpmn.event;html=1;verticalLabelPosition=bottom;labelBackgroundColor=#ffffff;verticalAlign=top;align=center;perimeter=ellipsePerimeter;outlineConnect=0;aspect=fixed;outline=catching;symbol=timer;fontSize=11;" parent="YS6oqYoZOVDC98tWYkDZ-2" vertex="1">
          <mxGeometry x="1751" y="65" width="50" height="50" as="geometry" />
        </mxCell>
        <mxCell id="YS6oqYoZOVDC98tWYkDZ-22" value="" style="edgeStyle=orthogonalEdgeStyle;rounded=0;orthogonalLoop=1;jettySize=auto;html=1;fontSize=18;startArrow=none;startFill=0;" parent="YS6oqYoZOVDC98tWYkDZ-2" source="YS6oqYoZOVDC98tWYkDZ-23" edge="1">
          <mxGeometry relative="1" as="geometry">
            <mxPoint x="2021" y="90" as="targetPoint" />
          </mxGeometry>
        </mxCell>
        <mxCell id="YS6oqYoZOVDC98tWYkDZ-23" value="Сдать анализы в клинике" style="points=[[0.25,0,0],[0.5,0,0],[0.75,0,0],[1,0.25,0],[1,0.5,0],[1,0.75,0],[0.75,1,0],[0.5,1,0],[0.25,1,0],[0,0.75,0],[0,0.5,0],[0,0.25,0]];shape=mxgraph.bpmn.task;whiteSpace=wrap;rectStyle=rounded;size=10;html=1;taskMarker=abstract;isLoopSub=1;fontSize=11;" parent="YS6oqYoZOVDC98tWYkDZ-2" vertex="1">
          <mxGeometry x="1851" y="50" width="120" height="80" as="geometry" />
        </mxCell>
        <mxCell id="YS6oqYoZOVDC98tWYkDZ-97" value="" style="edgeStyle=orthogonalEdgeStyle;rounded=0;orthogonalLoop=1;jettySize=auto;html=1;fontSize=15;startArrow=none;startFill=0;" parent="YS6oqYoZOVDC98tWYkDZ-2" source="YS6oqYoZOVDC98tWYkDZ-30" target="IVNKlUDxnltK97aEj8LP-40" edge="1">
          <mxGeometry relative="1" as="geometry" />
        </mxCell>
        <mxCell id="YS6oqYoZOVDC98tWYkDZ-30" value="&lt;span style=&quot;background-color: rgb(248, 249, 250);&quot;&gt;Результаты анализов&lt;br&gt;&lt;/span&gt;&amp;nbsp;готовы" style="points=[[0.145,0.145,0],[0.5,0,0],[0.855,0.145,0],[1,0.5,0],[0.855,0.855,0],[0.5,1,0],[0.145,0.855,0],[0,0.5,0]];shape=mxgraph.bpmn.event;html=1;verticalLabelPosition=top;labelBackgroundColor=#ffffff;verticalAlign=bottom;align=center;perimeter=ellipsePerimeter;outlineConnect=0;aspect=fixed;outline=catching;symbol=message;fontSize=11;labelPosition=center;" parent="YS6oqYoZOVDC98tWYkDZ-2" vertex="1">
          <mxGeometry x="2021" y="65" width="50" height="50" as="geometry" />
        </mxCell>
        <mxCell id="YS6oqYoZOVDC98tWYkDZ-38" value="" style="edgeStyle=orthogonalEdgeStyle;rounded=0;orthogonalLoop=1;jettySize=auto;html=1;fontSize=15;startArrow=none;startFill=0;" parent="YS6oqYoZOVDC98tWYkDZ-2" source="YS6oqYoZOVDC98tWYkDZ-39" target="YS6oqYoZOVDC98tWYkDZ-43" edge="1">
          <mxGeometry relative="1" as="geometry" />
        </mxCell>
        <mxCell id="YS6oqYoZOVDC98tWYkDZ-39" value="Записаться на повторный прием" style="points=[[0.25,0,0],[0.5,0,0],[0.75,0,0],[1,0.25,0],[1,0.5,0],[1,0.75,0],[0.75,1,0],[0.5,1,0],[0.25,1,0],[0,0.75,0],[0,0.5,0],[0,0.25,0]];shape=mxgraph.bpmn.task;whiteSpace=wrap;rectStyle=rounded;size=10;html=1;taskMarker=abstract;isLoopSub=1;fontSize=11;" parent="YS6oqYoZOVDC98tWYkDZ-2" vertex="1">
          <mxGeometry x="2440" y="50" width="120" height="80" as="geometry" />
        </mxCell>
        <mxCell id="YS6oqYoZOVDC98tWYkDZ-40" value="" style="edgeStyle=elbowEdgeStyle;fontSize=12;html=1;endArrow=blockThin;endFill=1;rounded=0;exitX=1;exitY=0.5;exitDx=0;exitDy=0;exitPerimeter=0;entryX=0;entryY=0.5;entryDx=0;entryDy=0;entryPerimeter=0;" parent="YS6oqYoZOVDC98tWYkDZ-2" source="IVNKlUDxnltK97aEj8LP-40" target="YS6oqYoZOVDC98tWYkDZ-41" edge="1">
          <mxGeometry width="160" relative="1" as="geometry">
            <mxPoint x="2101" y="160" as="sourcePoint" />
            <mxPoint x="2241" y="80" as="targetPoint" />
          </mxGeometry>
        </mxCell>
        <mxCell id="YS6oqYoZOVDC98tWYkDZ-41" value="&lt;font style=&quot;font-size: 11px;&quot;&gt;Обследование&amp;nbsp;&lt;br&gt;пройдено&lt;br&gt;&lt;/font&gt;" style="points=[[0.145,0.145,0],[0.5,0,0],[0.855,0.145,0],[1,0.5,0],[0.855,0.855,0],[0.5,1,0],[0.145,0.855,0],[0,0.5,0]];shape=mxgraph.bpmn.event;html=1;verticalLabelPosition=bottom;labelBackgroundColor=#ffffff;verticalAlign=top;align=center;perimeter=ellipsePerimeter;outlineConnect=0;aspect=fixed;outline=boundInt;symbol=terminate2;" parent="YS6oqYoZOVDC98tWYkDZ-2" vertex="1">
          <mxGeometry x="2330" y="65" width="50" height="50" as="geometry" />
        </mxCell>
        <mxCell id="YS6oqYoZOVDC98tWYkDZ-42" value="" style="edgeStyle=elbowEdgeStyle;fontSize=12;html=1;endArrow=blockThin;endFill=1;rounded=0;exitX=1;exitY=0.5;exitDx=0;exitDy=0;exitPerimeter=0;entryX=0;entryY=0.5;entryDx=0;entryDy=0;entryPerimeter=0;" parent="YS6oqYoZOVDC98tWYkDZ-2" source="YS6oqYoZOVDC98tWYkDZ-41" target="YS6oqYoZOVDC98tWYkDZ-39" edge="1">
          <mxGeometry width="160" relative="1" as="geometry">
            <mxPoint x="2480" y="30" as="sourcePoint" />
            <mxPoint x="2640" y="30" as="targetPoint" />
          </mxGeometry>
        </mxCell>
        <mxCell id="YS6oqYoZOVDC98tWYkDZ-43" value="Запись на &lt;br&gt;приём создана" style="points=[[0.145,0.145,0],[0.5,0,0],[0.855,0.145,0],[1,0.5,0],[0.855,0.855,0],[0.5,1,0],[0.145,0.855,0],[0,0.5,0]];shape=mxgraph.bpmn.event;html=1;verticalLabelPosition=bottom;labelBackgroundColor=#ffffff;verticalAlign=top;align=center;perimeter=ellipsePerimeter;outlineConnect=0;aspect=fixed;outline=end;symbol=general;" parent="YS6oqYoZOVDC98tWYkDZ-2" vertex="1">
          <mxGeometry x="2630" y="65" width="50" height="50" as="geometry" />
        </mxCell>
        <mxCell id="IVNKlUDxnltK97aEj8LP-42" value="Посмотреть назначение на медикаментозное лечение" style="points=[[0.25,0,0],[0.5,0,0],[0.75,0,0],[1,0.25,0],[1,0.5,0],[1,0.75,0],[0.75,1,0],[0.5,1,0],[0.25,1,0],[0,0.75,0],[0,0.5,0],[0,0.25,0]];shape=mxgraph.bpmn.task;whiteSpace=wrap;rectStyle=rounded;size=10;html=1;taskMarker=abstract;fontSize=11;" parent="YS6oqYoZOVDC98tWYkDZ-2" vertex="1">
          <mxGeometry x="751" y="55" width="120" height="80" as="geometry" />
        </mxCell>
        <mxCell id="IVNKlUDxnltK97aEj8LP-44" value="Посмотреть назначение на обследование" style="points=[[0.25,0,0],[0.5,0,0],[0.75,0,0],[1,0.25,0],[1,0.5,0],[1,0.75,0],[0.75,1,0],[0.5,1,0],[0.25,1,0],[0,0.75,0],[0,0.5,0],[0,0.25,0]];shape=mxgraph.bpmn.task;whiteSpace=wrap;rectStyle=rounded;size=10;html=1;taskMarker=abstract;fontSize=11;" parent="YS6oqYoZOVDC98tWYkDZ-2" vertex="1">
          <mxGeometry x="1444" y="50" width="120" height="80" as="geometry" />
        </mxCell>
        <mxCell id="IVNKlUDxnltK97aEj8LP-24" value="Просмотреть расписание процедурного кабинета&amp;nbsp;" style="points=[[0.25,0,0],[0.5,0,0],[0.75,0,0],[1,0.25,0],[1,0.5,0],[1,0.75,0],[0.75,1,0],[0.5,1,0],[0.25,1,0],[0,0.75,0],[0,0.5,0],[0,0.25,0]];shape=mxgraph.bpmn.task;whiteSpace=wrap;rectStyle=rounded;size=10;html=1;taskMarker=abstract;fontSize=11;" parent="YS6oqYoZOVDC98tWYkDZ-2" vertex="1">
          <mxGeometry x="1599" y="50" width="120" height="80" as="geometry" />
        </mxCell>
        <mxCell id="IVNKlUDxnltK97aEj8LP-40" value="Просмотреть результаты анализов" style="points=[[0.25,0,0],[0.5,0,0],[0.75,0,0],[1,0.25,0],[1,0.5,0],[1,0.75,0],[0.75,1,0],[0.5,1,0],[0.25,1,0],[0,0.75,0],[0,0.5,0],[0,0.25,0]];shape=mxgraph.bpmn.task;whiteSpace=wrap;rectStyle=rounded;size=10;html=1;taskMarker=abstract;fontSize=11;" parent="YS6oqYoZOVDC98tWYkDZ-2" vertex="1">
          <mxGeometry x="2140" y="50" width="120" height="80" as="geometry" />
        </mxCell>
        <mxCell id="7A3tt7wJiAWscBkksHv3-2" value="Наступил день &lt;br style=&quot;font-size: 10px;&quot;&gt;записи на приём" style="points=[[0.145,0.145,0],[0.5,0,0],[0.855,0.145,0],[1,0.5,0],[0.855,0.855,0],[0.5,1,0],[0.145,0.855,0],[0,0.5,0]];shape=mxgraph.bpmn.event;html=1;verticalLabelPosition=bottom;labelBackgroundColor=#ffffff;verticalAlign=top;align=center;perimeter=ellipsePerimeter;outlineConnect=0;aspect=fixed;outline=standard;symbol=general;fontSize=10;" parent="YS6oqYoZOVDC98tWYkDZ-2" vertex="1">
          <mxGeometry x="40" y="65" width="50" height="50" as="geometry" />
        </mxCell>
        <mxCell id="7A3tt7wJiAWscBkksHv3-7" style="edgeStyle=orthogonalEdgeStyle;rounded=0;orthogonalLoop=1;jettySize=auto;html=1;entryX=0;entryY=0.5;entryDx=0;entryDy=0;entryPerimeter=0;" parent="YS6oqYoZOVDC98tWYkDZ-2" source="7A3tt7wJiAWscBkksHv3-3" target="YS6oqYoZOVDC98tWYkDZ-6" edge="1">
          <mxGeometry relative="1" as="geometry" />
        </mxCell>
        <mxCell id="7A3tt7wJiAWscBkksHv3-3" value="Прийти на прием" style="points=[[0.25,0,0],[0.5,0,0],[0.75,0,0],[1,0.25,0],[1,0.5,0],[1,0.75,0],[0.75,1,0],[0.5,1,0],[0.25,1,0],[0,0.75,0],[0,0.5,0],[0,0.25,0]];shape=mxgraph.bpmn.task;whiteSpace=wrap;rectStyle=rounded;size=10;taskMarker=abstract;fontSize=11;" parent="YS6oqYoZOVDC98tWYkDZ-2" vertex="1">
          <mxGeometry x="120" y="50" width="120" height="80" as="geometry" />
        </mxCell>
        <mxCell id="7A3tt7wJiAWscBkksHv3-1" value="" style="edgeStyle=orthogonalEdgeStyle;rounded=0;orthogonalLoop=1;jettySize=auto;html=1;fontSize=10;" parent="YS6oqYoZOVDC98tWYkDZ-2" source="7A3tt7wJiAWscBkksHv3-2" target="7A3tt7wJiAWscBkksHv3-3" edge="1">
          <mxGeometry relative="1" as="geometry" />
        </mxCell>
        <mxCell id="YS6oqYoZOVDC98tWYkDZ-44" value="&lt;span style=&quot;background-color: rgb(251, 251, 251);&quot;&gt;Медицинская клиника&amp;nbsp;&lt;/span&gt;&lt;span style=&quot;border-color: var(--border-color); background-color: rgb(251, 251, 251); text-align: start; fill: rgb(144, 101, 176);&quot; data-reactroot=&quot;&quot; class=&quot;notion-enable-hover&quot; data-token-index=&quot;0&quot;&gt;«Вита» имени Е.Л. Яницкой&lt;/span&gt;" style="swimlane;html=1;childLayout=stackLayout;resizeParent=1;resizeParentMax=0;horizontal=0;startSize=20;horizontalStack=0;whiteSpace=wrap;" parent="1" vertex="1">
          <mxGeometry y="-200" width="2720" height="200" as="geometry" />
        </mxCell>
        <mxCell id="YS6oqYoZOVDC98tWYkDZ-66" value="Врач" style="swimlane;html=1;startSize=20;horizontal=0;fontSize=10;" parent="YS6oqYoZOVDC98tWYkDZ-44" vertex="1">
          <mxGeometry x="20" width="2700" height="200" as="geometry" />
        </mxCell>
        <mxCell id="YS6oqYoZOVDC98tWYkDZ-68" value="" style="edgeStyle=orthogonalEdgeStyle;rounded=0;orthogonalLoop=1;jettySize=auto;html=1;fontSize=10;startArrow=none;startFill=0;" parent="YS6oqYoZOVDC98tWYkDZ-66" source="YS6oqYoZOVDC98tWYkDZ-69" target="YS6oqYoZOVDC98tWYkDZ-71" edge="1">
          <mxGeometry relative="1" as="geometry" />
        </mxCell>
        <mxCell id="YS6oqYoZOVDC98tWYkDZ-69" value="&lt;span style=&quot;font-size: 11px;&quot;&gt;Пациент пришел на прием&lt;/span&gt;" style="points=[[0.145,0.145,0],[0.5,0,0],[0.855,0.145,0],[1,0.5,0],[0.855,0.855,0],[0.5,1,0],[0.145,0.855,0],[0,0.5,0]];shape=mxgraph.bpmn.event;html=1;verticalLabelPosition=bottom;labelBackgroundColor=#ffffff;verticalAlign=top;align=center;perimeter=ellipsePerimeter;outlineConnect=0;aspect=fixed;outline=standard;symbol=message;" parent="YS6oqYoZOVDC98tWYkDZ-66" vertex="1">
          <mxGeometry x="46" y="70" width="50" height="50" as="geometry" />
        </mxCell>
        <mxCell id="YS6oqYoZOVDC98tWYkDZ-70" value="" style="edgeStyle=orthogonalEdgeStyle;rounded=0;orthogonalLoop=1;jettySize=auto;html=1;fontSize=10;startArrow=none;startFill=0;" parent="YS6oqYoZOVDC98tWYkDZ-66" source="YS6oqYoZOVDC98tWYkDZ-71" target="YS6oqYoZOVDC98tWYkDZ-72" edge="1">
          <mxGeometry relative="1" as="geometry" />
        </mxCell>
        <mxCell id="YS6oqYoZOVDC98tWYkDZ-71" value="Провести осмотр" style="points=[[0.25,0,0],[0.5,0,0],[0.75,0,0],[1,0.25,0],[1,0.5,0],[1,0.75,0],[0.75,1,0],[0.5,1,0],[0.25,1,0],[0,0.75,0],[0,0.5,0],[0,0.25,0]];shape=mxgraph.bpmn.task;whiteSpace=wrap;rectStyle=rounded;size=10;taskMarker=abstract;isLoopSub=1;labelBackgroundColor=#FFFFFF;fontSize=11;fontColor=#000000;fillColor=#FFFFFF;" parent="YS6oqYoZOVDC98tWYkDZ-66" vertex="1">
          <mxGeometry x="180" y="55" width="120" height="80" as="geometry" />
        </mxCell>
        <mxCell id="YS6oqYoZOVDC98tWYkDZ-72" value="Диагноз поставлен?" style="points=[[0.25,0.25,0],[0.5,0,0],[0.75,0.25,0],[1,0.5,0],[0.75,0.75,0],[0.5,1,0],[0.25,0.75,0],[0,0.5,0]];shape=mxgraph.bpmn.gateway2;html=1;verticalLabelPosition=middle;labelBackgroundColor=#ffffff;verticalAlign=middle;align=left;perimeter=rhombusPerimeter;outlineConnect=0;outline=none;symbol=none;gwType=exclusive;fontSize=11;labelPosition=right;" parent="YS6oqYoZOVDC98tWYkDZ-66" vertex="1">
          <mxGeometry x="361" y="70" width="50" height="50" as="geometry" />
        </mxCell>
        <mxCell id="YS6oqYoZOVDC98tWYkDZ-95" value="" style="edgeStyle=orthogonalEdgeStyle;rounded=0;orthogonalLoop=1;jettySize=auto;html=1;fontSize=15;startArrow=none;startFill=0;" parent="YS6oqYoZOVDC98tWYkDZ-66" source="YS6oqYoZOVDC98tWYkDZ-74" target="YS6oqYoZOVDC98tWYkDZ-78" edge="1">
          <mxGeometry relative="1" as="geometry" />
        </mxCell>
        <mxCell id="YS6oqYoZOVDC98tWYkDZ-74" value="Назначить медикаментозное лечение" style="points=[[0.25,0,0],[0.5,0,0],[0.75,0,0],[1,0.25,0],[1,0.5,0],[1,0.75,0],[0.75,1,0],[0.5,1,0],[0.25,1,0],[0,0.75,0],[0,0.5,0],[0,0.25,0]];shape=mxgraph.bpmn.task;whiteSpace=wrap;rectStyle=rounded;size=10;taskMarker=abstract;fontSize=11;" parent="YS6oqYoZOVDC98tWYkDZ-66" vertex="1">
          <mxGeometry x="596" y="60" width="120" height="80" as="geometry" />
        </mxCell>
        <mxCell id="YS6oqYoZOVDC98tWYkDZ-75" value="Да" style="edgeStyle=orthogonalEdgeStyle;rounded=0;orthogonalLoop=1;jettySize=auto;html=1;fontSize=10;startArrow=none;startFill=0;exitX=0.5;exitY=0;exitDx=0;exitDy=0;exitPerimeter=0;entryX=0;entryY=0.5;entryDx=0;entryDy=0;entryPerimeter=0;" parent="YS6oqYoZOVDC98tWYkDZ-66" source="YS6oqYoZOVDC98tWYkDZ-72" target="YS6oqYoZOVDC98tWYkDZ-74" edge="1">
          <mxGeometry x="-0.6026" relative="1" as="geometry">
            <Array as="points">
              <mxPoint x="386" y="30" />
              <mxPoint x="551" y="30" />
              <mxPoint x="551" y="100" />
            </Array>
            <mxPoint as="offset" />
          </mxGeometry>
        </mxCell>
        <mxCell id="YS6oqYoZOVDC98tWYkDZ-78" value="&lt;font style=&quot;font-size: 11px;&quot;&gt;Пациент принят&lt;/font&gt;" style="points=[[0.145,0.145,0],[0.5,0,0],[0.855,0.145,0],[1,0.5,0],[0.855,0.855,0],[0.5,1,0],[0.145,0.855,0],[0,0.5,0]];shape=mxgraph.bpmn.event;html=1;verticalLabelPosition=bottom;labelBackgroundColor=#ffffff;verticalAlign=top;align=center;perimeter=ellipsePerimeter;outlineConnect=0;aspect=fixed;outline=end;symbol=terminate2;" parent="YS6oqYoZOVDC98tWYkDZ-66" vertex="1">
          <mxGeometry x="781" y="75" width="50" height="50" as="geometry" />
        </mxCell>
        <mxCell id="YS6oqYoZOVDC98tWYkDZ-80" value="Назначить обследование " style="points=[[0.25,0,0],[0.5,0,0],[0.75,0,0],[1,0.25,0],[1,0.5,0],[1,0.75,0],[0.75,1,0],[0.5,1,0],[0.25,1,0],[0,0.75,0],[0,0.5,0],[0,0.25,0]];shape=mxgraph.bpmn.task;whiteSpace=wrap;rectStyle=rounded;size=10;taskMarker=abstract;fontSize=11;" parent="YS6oqYoZOVDC98tWYkDZ-66" vertex="1">
          <mxGeometry x="1301" y="55" width="120" height="80" as="geometry" />
        </mxCell>
        <mxCell id="YS6oqYoZOVDC98tWYkDZ-81" value="Нет" style="edgeStyle=elbowEdgeStyle;fontSize=12;html=1;endArrow=blockThin;endFill=1;rounded=0;exitX=0.5;exitY=1;exitDx=0;exitDy=0;exitPerimeter=0;" parent="YS6oqYoZOVDC98tWYkDZ-66" source="YS6oqYoZOVDC98tWYkDZ-72" target="YS6oqYoZOVDC98tWYkDZ-80" edge="1">
          <mxGeometry x="-0.8434" width="160" relative="1" as="geometry">
            <mxPoint x="371" y="160" as="sourcePoint" />
            <mxPoint x="1151" y="80" as="targetPoint" />
            <Array as="points">
              <mxPoint x="1081" y="170" />
              <mxPoint x="711" y="160" />
              <mxPoint x="1061" y="160" />
              <mxPoint x="731" y="170" />
              <mxPoint x="881" y="170" />
              <mxPoint x="1041" y="110" />
            </Array>
            <mxPoint as="offset" />
          </mxGeometry>
        </mxCell>
        <mxCell id="YS6oqYoZOVDC98tWYkDZ-82" value="" style="edgeStyle=orthogonalEdgeStyle;rounded=0;orthogonalLoop=1;jettySize=auto;html=1;fontSize=10;startArrow=none;startFill=0;" parent="YS6oqYoZOVDC98tWYkDZ-66" source="YS6oqYoZOVDC98tWYkDZ-80" target="YS6oqYoZOVDC98tWYkDZ-84" edge="1">
          <mxGeometry relative="1" as="geometry">
            <mxPoint x="1420.9999999999995" y="94.99999999999977" as="sourcePoint" />
          </mxGeometry>
        </mxCell>
        <mxCell id="YS6oqYoZOVDC98tWYkDZ-84" value="&lt;font style=&quot;font-size: 11px;&quot;&gt;Пациент принят&lt;/font&gt;" style="points=[[0.145,0.145,0],[0.5,0,0],[0.855,0.145,0],[1,0.5,0],[0.855,0.855,0],[0.5,1,0],[0.145,0.855,0],[0,0.5,0]];shape=mxgraph.bpmn.event;html=1;verticalLabelPosition=bottom;labelBackgroundColor=#ffffff;verticalAlign=top;align=center;perimeter=ellipsePerimeter;outlineConnect=0;aspect=fixed;outline=end;symbol=terminate2;" parent="YS6oqYoZOVDC98tWYkDZ-66" vertex="1">
          <mxGeometry x="1461" y="70" width="50" height="50" as="geometry" />
        </mxCell>
        <mxCell id="YS6oqYoZOVDC98tWYkDZ-87" value="" style="dashed=1;dashPattern=8 4;endArrow=blockThin;endFill=1;startArrow=oval;startFill=0;endSize=6;startSize=4;html=1;rounded=0;fontSize=10;entryX=0.5;entryY=1;entryDx=0;entryDy=0;entryPerimeter=0;exitX=0.5;exitY=0;exitDx=0;exitDy=0;exitPerimeter=0;" parent="1" source="YS6oqYoZOVDC98tWYkDZ-74" target="YS6oqYoZOVDC98tWYkDZ-6" edge="1">
          <mxGeometry width="160" relative="1" as="geometry">
            <mxPoint x="701" y="20" as="sourcePoint" />
            <mxPoint x="941" y="-130" as="targetPoint" />
          </mxGeometry>
        </mxCell>
        <mxCell id="YS6oqYoZOVDC98tWYkDZ-88" value="" style="dashed=1;dashPattern=8 4;endArrow=blockThin;endFill=1;startArrow=oval;startFill=0;endSize=6;startSize=4;html=1;rounded=0;fontSize=10;entryX=0.5;entryY=1;entryDx=0;entryDy=0;entryPerimeter=0;" parent="1" source="YS6oqYoZOVDC98tWYkDZ-80" target="YS6oqYoZOVDC98tWYkDZ-15" edge="1">
          <mxGeometry width="160" relative="1" as="geometry">
            <mxPoint x="1381" y="125" as="sourcePoint" />
            <mxPoint x="1471" y="-60" as="targetPoint" />
          </mxGeometry>
        </mxCell>
        <mxCell id="7A3tt7wJiAWscBkksHv3-5" value="" style="dashed=1;dashPattern=8 4;endArrow=blockThin;endFill=1;startArrow=oval;startFill=0;endSize=6;startSize=4;rounded=0;exitX=0.5;exitY=1;exitDx=0;exitDy=0;exitPerimeter=0;entryX=0.5;entryY=0;entryDx=0;entryDy=0;entryPerimeter=0;" parent="1" source="7A3tt7wJiAWscBkksHv3-3" target="YS6oqYoZOVDC98tWYkDZ-69" edge="1">
          <mxGeometry width="160" relative="1" as="geometry">
            <mxPoint x="110" y="-230" as="sourcePoint" />
            <mxPoint x="270" y="-230" as="targetPoint" />
            <Array as="points">
              <mxPoint x="180" y="-220" />
              <mxPoint x="91" y="-220" />
            </Array>
          </mxGeometry>
        </mxCell>
      </root>
    </mxGraphModel>
  </diagram>
</mxfile>
